<?xml version="1.0" encoding="UTF-8" standalone="no"?>
<svg
   xmlns:dc="http://purl.org/dc/elements/1.1/"
   xmlns:cc="http://creativecommons.org/ns#"
   xmlns:rdf="http://www.w3.org/1999/02/22-rdf-syntax-ns#"
   xmlns:svg="http://www.w3.org/2000/svg"
   xmlns="http://www.w3.org/2000/svg"
   viewBox="0 0 3333.3333 2666.6667"
   height="2666.6667"
   width="3333.3333"
   xml:space="preserve"
   id="svg2"
   version="1.1"><metadata
     id="metadata8"><rdf:RDF><cc:Work
         rdf:about=""><dc:format>image/svg+xml</dc:format><dc:type
           rdf:resource="http://purl.org/dc/dcmitype/StillImage" /></cc:Work></rdf:RDF></metadata><defs
     id="defs6"><clipPath
       id="clipPath18"
       clipPathUnits="userSpaceOnUse"><path
         id="path16"
         d="M 0,2000 H 2500 V 0 H 0 Z" /></clipPath><radialGradient
       id="radialGradient178"
       spreadMethod="pad"
       gradientTransform="matrix(389.53271,-133.0912,-133.0912,-389.53271,1244.5459,1234.1992)"
       gradientUnits="userSpaceOnUse"
       r="1"
       cy="0"
       cx="0"
       fy="0"
       fx="0"><stop
         id="stop172"
         offset="0"
         style="stop-opacity:1;stop-color:#00a3ff" /><stop
         id="stop174"
         offset="0.66051405"
         style="stop-opacity:1;stop-color:#00a3ff" /><stop
         id="stop176"
         offset="1"
         style="stop-opacity:1;stop-color:#144aa6" /></radialGradient><clipPath
       id="clipPath188"
       clipPathUnits="userSpaceOnUse"><path
         id="path186"
         d="M 0,2000 H 2500 V 0 H 0 Z" /></clipPath><radialGradient
       id="radialGradient220"
       spreadMethod="pad"
       gradientTransform="matrix(357.97098,0,0,-357.97098,1321.5322,1196.543)"
       gradientUnits="userSpaceOnUse"
       r="1"
       cy="0"
       cx="0"
       fy="0"
       fx="0"><stop
         id="stop214"
         offset="0"
         style="stop-opacity:1;stop-color:#e71e2d" /><stop
         id="stop216"
         offset="0.67970995"
         style="stop-opacity:1;stop-color:#e71e2d" /><stop
         id="stop218"
         offset="1"
         style="stop-opacity:1;stop-color:#401f20" /></radialGradient><clipPath
       id="clipPath230"
       clipPathUnits="userSpaceOnUse"><path
         id="path228"
         d="M 0,2000 H 2500 V 0 H 0 Z" /></clipPath><clipPath
       id="clipPath254"
       clipPathUnits="userSpaceOnUse"><path
         id="path252"
         d="M 978.787,793.367 H 1521.15 V 747.02 H 978.787 Z" /></clipPath><radialGradient
       id="radialGradient266"
       spreadMethod="pad"
       gradientTransform="matrix(248.58313,0,0,-32.951477,1249.9692,770.19336)"
       gradientUnits="userSpaceOnUse"
       r="1"
       cy="0"
       cx="0"
       fy="0"
       fx="0"><stop
         id="stop260"
         offset="0"
         style="stop-opacity:1;stop-color:#6d6e70" /><stop
         id="stop262"
         offset="0.69366888"
         style="stop-opacity:1;stop-color:#ffffff" /><stop
         id="stop264"
         offset="1"
         style="stop-opacity:1;stop-color:#ffffff" /></radialGradient></defs><g
     transform="matrix(1.3333333,0,0,-1.3333333,0,2666.6667)"
     id="g10"><g
       id="g12"><g
         clip-path="url(#clipPath18)"
         id="g14"><g
           transform="translate(407.1191,387.9082)"
           id="g20"><path
             id="path22"
             style="fill:#58595b;fill-opacity:1;fill-rule:nonzero;stroke:none"
             d="m 0,0 c 0,13.203 0,15.605 -0.2,18.306 -0.2,2.9 -0.698,4.301 -3.599,4.702 -0.698,0.097 -2.202,0.195 -3.003,0.195 -0.298,0 -0.698,0.401 -0.698,0.703 0,0.498 0.4,0.703 1.401,0.703 3.999,0 9.502,-0.205 10,-0.205 1.7,0 20.806,-0.097 22.808,0 1.699,0.103 3.198,0.103 3.999,0.401 0.498,0.102 0.898,0.503 1.201,0.503 0.401,0 0.601,-0.401 0.601,-0.801 0,-0.601 -0.401,-1.597 -0.703,-3.999 -0.098,-0.801 -0.201,-4.6 -0.401,-5.606 -0.097,-0.4 -0.4,-0.898 -0.796,-0.898 -0.4,0 -0.703,0.4 -0.703,1.001 0,0.698 -0.298,2.099 -0.801,3.198 -0.498,1.104 -2.597,2.5 -6.001,2.5 L 8.701,20.908 c -0.498,0 -0.698,-0.205 -0.698,-0.903 V -3.198 c 0,-0.503 0,-0.801 0.601,-0.801 l 12.001,0.103 c 1.499,0 2.803,0 3.999,0.097 2.105,0.2 3.301,0.498 4.102,1.499 0.4,0.503 0.801,0.904 1.104,0.904 0.4,0 0.498,-0.303 0.498,-0.704 0,-0.498 -0.601,-1.899 -0.801,-4.697 -0.2,-1.704 -0.298,-5.107 -0.298,-5.703 0,-0.801 -0.2,-1.699 -0.801,-1.699 -0.503,0 -0.6,0.4 -0.6,0.801 -0.103,0.898 -0.201,2.099 -0.601,3.095 -0.4,1.201 -1.802,2.305 -4.502,2.705 -2.197,0.298 -12.602,0.196 -14.101,0.196 -0.499,0 -0.601,-0.196 -0.601,-0.801 V -15 c 0,-8.403 0,-15.107 0.4,-18.408 0.298,-2.5 0.801,-4.102 3.203,-4.497 1.299,-0.2 3.199,-0.401 3.999,-0.401 0.499,0 0.699,-0.4 0.699,-0.698 0,-0.4 -0.401,-0.703 -1.402,-0.703 -4.897,0 -10.6,0.303 -11.001,0.303 -0.498,0 -6.001,-0.303 -8.701,-0.303 -0.898,0 -1.401,0.2 -1.401,0.703 0,0.298 0.2,0.698 0.703,0.698 0.801,0 1.899,0.298 2.7,0.401 1.699,0.298 1.9,1.997 2.3,4.497 C 0,-29.902 0,-23.203 0,-15 Z" /></g><g
           transform="translate(511.123,372.9082)"
           id="g24"><path
             id="path26"
             style="fill:#58595b;fill-opacity:1;fill-rule:nonzero;stroke:none"
             d="m 0,0 c 0,-8.203 0,-14.902 0.4,-18.408 0.298,-2.5 0.596,-4.102 3.199,-4.497 1.298,-0.2 3.203,-0.401 3.999,-0.401 0.503,0 0.703,-0.4 0.703,-0.698 0,-0.4 -0.401,-0.703 -1.402,-0.703 -4.902,0 -10.6,0.303 -11.001,0.303 -0.502,0 -6.001,-0.303 -8.701,-0.303 -0.903,0 -1.401,0.2 -1.401,0.703 0,0.298 0.2,0.698 0.698,0.698 0.801,0 1.9,0.201 2.7,0.401 1.7,0.395 2.002,1.997 2.3,4.497 0.401,3.506 0.503,10.205 0.503,18.408 v 15 c 0,13.203 0,15.605 -0.2,18.306 -0.2,2.9 -0.903,4.204 -2.803,4.604 -1.001,0.195 -2.099,0.293 -2.7,0.293 -0.4,0 -0.698,0.401 -0.698,0.703 0,0.498 0.4,0.703 1.401,0.703 2.9,0 8.399,-0.205 8.901,-0.205 0.401,0 6.099,0.205 8.799,0.205 1.001,0 1.402,-0.205 1.402,-0.703 0,-0.302 -0.401,-0.703 -0.699,-0.703 -0.6,0 -1.201,0 -2.202,-0.195 C 0.796,37.51 0.298,36.309 0.098,33.306 0,30.605 0,28.203 0,15 Z" /></g><g
           transform="translate(586.2207,359.8027)"
           id="g28"><path
             id="path30"
             style="fill:#58595b;fill-opacity:1;fill-rule:nonzero;stroke:none"
             d="M 0,0 C 0.2,-7.002 1.001,-9.102 3.403,-9.702 5,-10.098 7.002,-10.2 7.803,-10.2 c 0.4,0 0.698,-0.298 0.698,-0.698 0,-0.503 -0.596,-0.704 -1.597,-0.704 -5.005,0 -8.506,0.303 -9.301,0.303 -0.801,0 -4.502,-0.303 -8.506,-0.303 -0.899,0 -1.397,0.098 -1.397,0.704 0,0.4 0.298,0.698 0.698,0.698 0.699,0 2.3,0.102 3.599,0.498 2.202,0.6 2.505,2.905 2.505,10.6 v 48.711 c 0,3.404 0.498,4.307 1.196,4.307 1.001,0 2.505,-1.704 3.404,-2.607 1.401,-1.397 14.204,-15 27.807,-29.004 C 35.61,13.301 45.01,3.203 47.71,0.4 l -0.898,42.608 c -0.103,5.503 -0.601,7.402 -3.301,7.905 -1.602,0.298 -3.599,0.396 -4.302,0.396 -0.601,0 -0.698,0.503 -0.698,0.8 0,0.503 0.698,0.606 1.699,0.606 3.999,0 8.203,-0.205 9.204,-0.205 0.996,0 3.897,0.205 7.5,0.205 0.899,0 1.602,-0.103 1.602,-0.606 0,-0.297 -0.401,-0.8 -1.001,-0.8 -0.401,0 -1.104,0 -2.1,-0.196 -2.9,-0.6 -3.101,-2.304 -3.101,-7.402 l -0.2,-49.815 c 0,-5.595 -0.102,-6.098 -0.703,-6.098 -0.898,0 -1.802,0.698 -6.699,5.2 C 43.809,-6.201 31.108,6.304 21.807,16.006 11.602,26.709 1.699,37.109 -1.001,40.107 Z" /></g><g
           transform="translate(731.5234,375.4082)"
           id="g32"><path
             id="path34"
             style="fill:#58595b;fill-opacity:1;fill-rule:nonzero;stroke:none"
             d="m 0,0 c 0.4,0 0.4,0.2 0.303,0.596 l -8.701,23.31 c -0.503,1.299 -1.001,1.299 -1.504,0 L -18.101,0.596 C -18.203,0.2 -18.101,0 -17.803,0 Z m -9.8,35.41 c 1.099,2.798 1.499,3.296 2.1,3.296 0.898,0 1.201,-1.196 2.099,-3.101 1.602,-3.598 15.704,-38.706 21.104,-51.611 3.203,-7.598 5.601,-8.701 7.5,-9.302 1.304,-0.395 2.602,-0.498 3.501,-0.498 0.503,0 1.103,-0.2 1.103,-0.698 0,-0.503 -1.001,-0.703 -2.002,-0.703 -1.298,0 -7.802,0 -13.901,0.2 -1.704,0.103 -3.1,0.103 -3.1,0.601 0,0.4 0.2,0.4 0.6,0.6 0.498,0.201 1.397,0.899 0.796,2.3 L 2.1,-4.004 c -0.201,0.4 -0.298,0.503 -0.801,0.503 h -20.303 c -0.4,0 -0.698,-0.2 -0.898,-0.698 l -5,-13.604 c -0.801,-2.099 -1.304,-4.204 -1.304,-5.703 0,-1.699 1.504,-2.3 3.003,-2.3 h 0.801 c 0.698,0 0.898,-0.298 0.898,-0.698 0,-0.503 -0.498,-0.703 -1.299,-0.703 -2.099,0 -6.904,0.303 -7.905,0.303 -0.898,0 -5.298,-0.303 -8.901,-0.303 -1.099,0 -1.7,0.2 -1.7,0.703 0,0.4 0.401,0.698 0.801,0.698 0.601,0 1.9,0.103 2.603,0.201 3.999,0.498 5.698,3.501 7.397,7.802 z" /></g><g
           transform="translate(816.9189,359.8027)"
           id="g36"><path
             id="path38"
             style="fill:#58595b;fill-opacity:1;fill-rule:nonzero;stroke:none"
             d="M 0,0 C 0.2,-7.002 1.001,-9.102 3.398,-9.702 5,-10.098 7.002,-10.2 7.803,-10.2 c 0.4,0 0.698,-0.298 0.698,-0.698 0,-0.503 -0.601,-0.704 -1.602,-0.704 -5,0 -8.501,0.303 -9.301,0.303 -0.801,0 -4.497,-0.303 -8.501,-0.303 -0.899,0 -1.402,0.098 -1.402,0.704 0,0.4 0.303,0.698 0.703,0.698 0.699,0 2.3,0.102 3.599,0.498 2.202,0.6 2.5,2.905 2.5,10.6 v 48.711 c 0,3.404 0.503,4.307 1.201,4.307 1.001,0 2.5,-1.704 3.404,-2.607 1.396,-1.397 14.199,-15 27.802,-29.004 C 35.605,13.301 45.01,3.203 47.71,0.4 l -0.898,42.608 c -0.103,5.503 -0.601,7.402 -3.301,7.905 -1.602,0.298 -3.604,0.396 -4.302,0.396 -0.601,0 -0.703,0.503 -0.703,0.8 0,0.503 0.703,0.606 1.704,0.606 3.999,0 8.198,-0.205 9.199,-0.205 1.001,0 3.902,0.205 7.505,0.205 0.899,0 1.597,-0.103 1.597,-0.606 0,-0.297 -0.401,-0.8 -0.996,-0.8 -0.401,0 -1.104,0 -2.105,-0.196 -2.9,-0.6 -3.1,-2.304 -3.1,-7.402 L 52.109,-6.104 c 0,-5.595 -0.097,-6.098 -0.698,-6.098 -0.898,0 -1.802,0.698 -6.699,5.2 C 43.809,-6.201 31.108,6.304 21.807,16.006 11.602,26.709 1.699,37.109 -1.001,40.107 Z" /></g><g
           transform="translate(938.3154,356.2041)"
           id="g40"><path
             id="path42"
             style="fill:#58595b;fill-opacity:1;fill-rule:nonzero;stroke:none"
             d="m 0,0 c -8.599,7.397 -10.698,17.104 -10.698,25.205 0,5.698 2.099,15.601 9.902,23.203 5.298,5.103 13.301,9.107 26.802,9.107 3.501,0 8.506,-0.303 12.803,-1.006 3.3,-0.596 6.103,-1.201 9.004,-1.299 0.898,0 1.098,-0.4 1.098,-0.898 0,-0.704 -0.2,-1.7 -0.4,-4.805 -0.098,-2.798 -0.098,-7.5 -0.2,-8.701 -0.098,-1.299 -0.498,-1.797 -0.997,-1.797 -0.6,0 -0.703,0.595 -0.703,1.797 0,3.3 -1.401,6.704 -3.701,8.506 -3.1,2.597 -9.502,4.697 -17.305,4.697 C 14.307,54.009 8.906,51.011 5.806,48.11 -0.698,42.104 -2.1,34.507 -2.1,25.903 -2.1,9.604 10.806,-4.902 29.609,-4.902 c 6.602,0 11.001,0.503 14.502,3.999 1.9,1.904 3.101,5.503 3.404,7.104 0.2,0.899 0.298,1.196 0.898,1.196 0.4,0 0.801,-0.595 0.801,-1.196 0,-0.6 -1.201,-8.003 -2.1,-10.903 -0.503,-1.602 -0.703,-1.9 -2.202,-2.5 C 41.313,-8.604 34.712,-9.106 29.009,-9.106 15.806,-9.106 6.904,-6.001 0,0" /></g><g
           transform="translate(1058.9209,372.9082)"
           id="g44"><path
             id="path46"
             style="fill:#58595b;fill-opacity:1;fill-rule:nonzero;stroke:none"
             d="m 0,0 c 0,-8.203 0,-14.902 0.4,-18.408 0.298,-2.5 0.601,-4.102 3.199,-4.497 1.303,-0.2 3.203,-0.401 4.004,-0.401 0.498,0 0.698,-0.4 0.698,-0.698 0,-0.4 -0.401,-0.703 -1.402,-0.703 -4.897,0 -10.6,0.303 -11.001,0.303 -0.498,0 -6.001,-0.303 -8.701,-0.303 -0.903,0 -1.401,0.2 -1.401,0.703 0,0.298 0.2,0.698 0.698,0.698 0.801,0 1.904,0.201 2.705,0.401 1.699,0.395 1.997,1.997 2.3,4.497 0.4,3.506 0.498,10.205 0.498,18.408 v 15 c 0,13.203 0,15.605 -0.2,18.306 -0.2,2.9 -0.899,4.204 -2.798,4.604 -1.001,0.195 -2.104,0.293 -2.705,0.293 -0.396,0 -0.698,0.401 -0.698,0.703 0,0.498 0.4,0.703 1.401,0.703 2.9,0 8.403,-0.205 8.901,-0.205 0.401,0 6.104,0.205 8.804,0.205 0.996,0 1.397,-0.205 1.397,-0.703 0,-0.302 -0.401,-0.703 -0.699,-0.703 -0.6,0 -1.201,0 -2.202,-0.195 C 0.801,37.51 0.298,36.309 0.098,33.306 0,30.605 0,28.203 0,15 Z" /></g><g
           transform="translate(1155.5176,375.4082)"
           id="g48"><path
             id="path50"
             style="fill:#58595b;fill-opacity:1;fill-rule:nonzero;stroke:none"
             d="m 0,0 c 0.4,0 0.4,0.2 0.303,0.596 l -8.701,23.31 c -0.503,1.299 -1.001,1.299 -1.499,0 L -18.101,0.596 C -18.203,0.2 -18.101,0 -17.803,0 Z m -9.8,35.41 c 1.099,2.798 1.499,3.296 2.1,3.296 0.903,0 1.201,-1.196 2.099,-3.101 1.602,-3.598 15.704,-38.706 21.109,-51.611 3.198,-7.598 5.6,-8.701 7.5,-9.302 1.299,-0.395 2.597,-0.498 3.501,-0.498 0.498,0 1.098,-0.2 1.098,-0.698 0,-0.503 -1.001,-0.703 -2.002,-0.703 -1.298,0 -7.797,0 -13.901,0.2 -1.699,0.103 -3.1,0.103 -3.1,0.601 0,0.4 0.2,0.4 0.6,0.6 0.498,0.201 1.401,0.899 0.801,2.3 L 2.104,-4.004 c -0.2,0.4 -0.302,0.503 -0.8,0.503 h -20.308 c -0.4,0 -0.698,-0.2 -0.898,-0.698 l -5,-13.604 c -0.801,-2.099 -1.299,-4.204 -1.299,-5.703 0,-1.699 1.499,-2.3 2.998,-2.3 h 0.801 c 0.698,0 0.898,-0.298 0.898,-0.698 0,-0.503 -0.498,-0.703 -1.299,-0.703 -2.099,0 -6.899,0.303 -7.9,0.303 -0.903,0 -5.303,-0.303 -8.901,-0.303 -1.104,0 -1.705,0.2 -1.705,0.703 0,0.4 0.401,0.698 0.801,0.698 0.601,0 1.9,0.103 2.603,0.201 3.999,0.498 5.698,3.501 7.402,7.802 z" /></g><g
           transform="translate(1245.2197,372.7031)"
           id="g52"><path
             id="path54"
             style="fill:#58595b;fill-opacity:1;fill-rule:nonzero;stroke:none"
             d="m 0,0 c 0,-12.5 0.2,-17.598 1.802,-19.102 1.396,-1.396 4.8,-2.002 11.699,-2.002 4.604,0 8.501,0.103 10.605,2.603 1.099,1.304 1.797,3.101 2.1,4.8 0.098,0.605 0.4,1.103 0.898,1.103 0.401,0 0.601,-0.4 0.601,-1.298 0,-0.904 -0.601,-6.006 -1.299,-8.506 -0.6,-2.002 -0.903,-2.3 -5.6,-2.3 -6.304,0 -11.206,0.102 -15.308,0.298 -3.999,0.102 -6.997,0.205 -9.6,0.205 -0.4,0 -1.899,0 -3.598,-0.103 -1.802,-0.102 -3.701,-0.2 -5.103,-0.2 -0.903,0 -1.401,0.2 -1.401,0.703 0,0.298 0.2,0.698 0.698,0.698 0.801,0 1.904,0.201 2.705,0.401 1.699,0.395 1.9,1.997 2.3,4.497 0.498,3.506 0.498,10.205 0.498,18.408 v 15 c 0,13.203 0,15.606 -0.2,18.306 -0.2,2.9 -0.698,4.302 -3.599,4.702 -0.703,0.098 -2.202,0.195 -3.003,0.195 -0.298,0 -0.698,0.401 -0.698,0.703 0,0.498 0.4,0.703 1.401,0.703 3.999,0 9.502,-0.205 10,-0.205 0.401,0 7.002,0.205 9.703,0.205 0.898,0 1.401,-0.205 1.401,-0.703 0,-0.302 -0.4,-0.6 -0.703,-0.6 -0.601,0 -1.9,-0.103 -2.901,-0.2 -2.597,-0.498 -3.1,-1.797 -3.3,-4.8 C 0,30.811 0,28.408 0,15.205 Z" /></g><g
           transform="translate(1431.416,375.4082)"
           id="g56"><path
             id="path58"
             style="fill:#58595b;fill-opacity:1;fill-rule:nonzero;stroke:none"
             d="m 0,0 c 0.4,0 0.4,0.2 0.303,0.596 l -8.701,23.31 c -0.503,1.299 -1.001,1.299 -1.499,0 L -18.101,0.596 C -18.203,0.2 -18.101,0 -17.803,0 Z m -9.8,35.41 c 1.099,2.798 1.499,3.296 2.1,3.296 0.903,0 1.201,-1.196 2.099,-3.101 1.602,-3.598 15.704,-38.706 21.109,-51.611 3.198,-7.598 5.6,-8.701 7.5,-9.302 1.299,-0.395 2.597,-0.498 3.501,-0.498 0.498,0 1.098,-0.2 1.098,-0.698 0,-0.503 -1.001,-0.703 -2.002,-0.703 -1.298,0 -7.797,0 -13.901,0.2 -1.699,0.103 -3.1,0.103 -3.1,0.601 0,0.4 0.2,0.4 0.6,0.6 0.498,0.201 1.401,0.899 0.801,2.3 L 2.104,-4.004 c -0.2,0.4 -0.302,0.503 -0.8,0.503 h -20.308 c -0.4,0 -0.698,-0.2 -0.898,-0.698 l -5,-13.604 c -0.801,-2.099 -1.299,-4.204 -1.299,-5.703 0,-1.699 1.499,-2.3 2.998,-2.3 h 0.801 c 0.698,0 0.898,-0.298 0.898,-0.698 0,-0.503 -0.498,-0.703 -1.299,-0.703 -2.099,0 -6.899,0.303 -7.9,0.303 -0.903,0 -5.303,-0.303 -8.901,-0.303 -1.104,0 -1.705,0.2 -1.705,0.703 0,0.4 0.401,0.698 0.801,0.698 0.601,0 1.9,0.103 2.603,0.201 3.999,0.498 5.698,3.501 7.402,7.802 z" /></g><g
           transform="translate(1521.1133,378.709)"
           id="g60"><path
             id="path62"
             style="fill:#58595b;fill-opacity:1;fill-rule:nonzero;stroke:none"
             d="m 0,0 c 0,-9.004 0,-16.904 0.098,-18.506 0.102,-2.099 0.302,-5.2 1.001,-6.103 1.098,-1.597 4.199,-3.399 14.604,-3.399 8.101,0 15.303,2.7 20.606,7.705 4.599,4.297 6.899,12.403 6.899,20.205 0,10.801 -4.702,17.701 -8.301,21.299 -8.301,8.403 -18.003,9.502 -28.506,9.502 -1.699,0 -4.502,-0.298 -5.302,-0.596 C 0.298,29.805 0,29.404 0,28.408 Z m -8.003,9.199 c 0,13.203 0,15.606 -0.2,18.306 -0.2,2.9 -0.698,4.302 -3.599,4.702 -0.703,0.098 -2.202,0.195 -3.003,0.195 -0.298,0 -0.698,0.401 -0.698,0.703 0,0.499 0.4,0.704 1.401,0.704 3.999,0 9.703,-0.205 10.201,-0.205 1.001,0 6.601,0.205 11.801,0.205 8.804,0 24.908,0.8 35.308,-9.707 4.399,-4.4 8.604,-11.499 8.604,-21.602 0,-10.703 -4.605,-18.906 -9.502,-23.906 -3.804,-3.902 -11.705,-9.805 -26.709,-9.805 -3.799,0 -8.501,0.303 -12.3,0.503 -3.804,0.298 -6.802,0.503 -7.202,0.503 -0.201,0 -1.802,-0.103 -3.604,-0.103 -1.797,-0.102 -3.896,-0.2 -5.298,-0.2 -0.903,0 -1.401,0.2 -1.401,0.703 0,0.298 0.2,0.699 0.698,0.699 0.801,0 1.904,0.2 2.705,0.4 1.699,0.395 1.9,1.997 2.3,4.497 0.498,3.506 0.498,10.205 0.498,18.408 z" /></g><g
           transform="translate(1655.8203,359.3047)"
           id="g64"><path
             id="path66"
             style="fill:#58595b;fill-opacity:1;fill-rule:nonzero;stroke:none"
             d="m 0,0 c 5.098,11.401 16.602,40.41 18.501,46.509 0.4,1.304 0.801,2.5 0.801,3.198 0,0.703 -0.298,1.504 -1.201,1.807 -1.001,0.293 -1.997,0.293 -2.998,0.293 -0.503,0 -1.001,0.302 -1.001,0.703 0,0.498 0.6,0.703 2.002,0.703 3.5,0 7.5,-0.205 8.598,-0.205 0.503,0 4.302,0.205 6.904,0.205 0.899,0 1.397,-0.205 1.397,-0.606 0,-0.4 -0.298,-0.8 -0.996,-0.8 -0.601,0 -2.603,0 -4.204,-0.996 C 26.602,50.01 25.205,48.809 22.9,43.008 21.904,40.605 17.603,30.405 13.101,20 7.7,7.598 3.799,-1.602 1.797,-5.801 c -2.398,-5.102 -2.901,-6.406 -3.799,-6.406 -1.001,0 -1.602,1.103 -3.301,5.205 l -21.606,52.109 c -1.997,4.805 -3.198,5.704 -6.099,6.407 -1.401,0.293 -2.9,0.293 -3.403,0.293 -0.498,0 -0.698,0.503 -0.698,0.8 0,0.503 0.898,0.606 2.299,0.606 4.2,0 9.205,-0.205 10.303,-0.205 0.899,0 4.8,0.205 8.203,0.205 1.597,0 2.398,-0.205 2.398,-0.606 0,-0.4 -0.298,-0.8 -0.899,-0.8 -1.001,0 -2.402,-0.098 -3.203,-0.396 -0.898,-0.4 -0.996,-0.903 -0.996,-1.499 0,-1.103 1.099,-3.701 2.398,-7.104 z" /></g><g
           transform="translate(1752.3145,372.9082)"
           id="g68"><path
             id="path70"
             style="fill:#58595b;fill-opacity:1;fill-rule:nonzero;stroke:none"
             d="m 0,0 c 0,-8.203 0,-14.902 0.4,-18.408 0.298,-2.5 0.601,-4.102 3.199,-4.497 1.303,-0.2 3.203,-0.401 4.004,-0.401 0.498,0 0.698,-0.4 0.698,-0.698 0,-0.4 -0.401,-0.703 -1.402,-0.703 -4.897,0 -10.6,0.303 -11.001,0.303 -0.498,0 -6.001,-0.303 -8.701,-0.303 -0.903,0 -1.401,0.2 -1.401,0.703 0,0.298 0.2,0.698 0.698,0.698 0.801,0 1.904,0.201 2.705,0.401 1.699,0.395 1.997,1.997 2.3,4.497 0.4,3.506 0.498,10.205 0.498,18.408 v 15 c 0,13.203 0,15.605 -0.2,18.306 -0.2,2.9 -0.899,4.204 -2.798,4.604 -1.001,0.195 -2.104,0.293 -2.705,0.293 -0.396,0 -0.698,0.401 -0.698,0.703 0,0.498 0.4,0.703 1.401,0.703 2.9,0 8.403,-0.205 8.901,-0.205 0.401,0 6.104,0.205 8.804,0.205 0.996,0 1.397,-0.205 1.397,-0.703 0,-0.302 -0.401,-0.703 -0.699,-0.703 -0.6,0 -1.201,0 -2.202,-0.195 C 0.801,37.51 0.298,36.309 0.098,33.306 0,30.605 0,28.203 0,15 Z" /></g><g
           transform="translate(1818.3105,349.4023)"
           id="g72"><path
             id="path74"
             style="fill:#58595b;fill-opacity:1;fill-rule:nonzero;stroke:none"
             d="m 0,0 c -1.201,0.601 -1.299,0.898 -1.299,3.203 0,4.199 0.401,7.598 0.498,8.999 0,0.903 0.2,1.402 0.703,1.402 0.498,0 0.801,-0.303 0.801,-1.001 0,-0.699 0,-1.9 0.298,-3.101 1.401,-6.201 8.003,-8.403 13.901,-8.403 8.706,0 13.203,4.902 13.203,11.303 0,6.104 -3.3,9.004 -11.098,14.805 l -4.004,2.998 C 3.501,37.305 0.4,42.51 0.4,48.408 c 0,10 7.901,16.006 19.507,16.006 3.501,0 7.002,-0.498 9.102,-1.001 1.699,-0.4 2.397,-0.4 3.1,-0.4 0.699,0 0.899,-0.103 0.899,-0.601 0,-0.4 -0.401,-3.203 -0.401,-9.004 0,-1.299 -0.097,-1.894 -0.698,-1.894 -0.6,0 -0.703,0.395 -0.801,1.093 -0.102,1.006 -0.8,3.301 -1.298,4.205 -0.601,1.001 -3.501,4.204 -11.407,4.204 -6.401,0 -11.699,-3.203 -11.699,-9.204 0,-5.406 2.7,-8.501 11.401,-14.405 l 2.5,-1.699 C 31.309,28.408 35.01,22.505 35.01,15.205 35.01,10.205 33.11,4.8 26.807,0.698 23.105,-1.699 17.603,-2.305 12.803,-2.305 8.701,-2.305 3.604,-1.699 0,0" /></g><g
           transform="translate(1947.5146,350.6035)"
           id="g76"><path
             id="path78"
             style="fill:#58595b;fill-opacity:1;fill-rule:nonzero;stroke:none"
             d="m 0,0 c 7.905,0 23.809,4.199 23.809,28.804 0,20.405 -12.403,31.108 -26.309,31.108 -14.702,0 -25.303,-9.204 -25.303,-27.705 C -27.803,12.402 -15.903,0 0,0 m -1.997,63.115 c 19.805,0 34.805,-12.109 34.805,-31.909 0,-19.004 -14.102,-34.712 -35.308,-34.712 -24.102,0 -34.404,18.106 -34.404,33.408 0,13.706 10.6,33.213 34.907,33.213" /></g><g
           transform="translate(2048.8135,380.7109)"
           id="g80"><path
             id="path82"
             style="fill:#58595b;fill-opacity:1;fill-rule:nonzero;stroke:none"
             d="m 0,0 c 0,-0.503 0.2,-0.801 0.601,-1.104 1.298,-0.698 5.8,-1.298 9.702,-1.298 2.099,0 4.502,0.097 6.601,1.499 2.998,2.002 5.298,6.499 5.298,13.003 0,10.605 -5.801,16.704 -15.2,16.704 -2.603,0 -5.4,-0.298 -6.304,-0.503 C 0.298,28.105 0,27.803 0,27.305 Z m -7.603,7.197 c 0,13.203 0,15.606 -0.2,18.306 -0.2,2.9 -0.698,4.302 -3.598,4.702 -0.703,0.098 -2.203,0.195 -3.003,0.195 -0.298,0 -0.699,0.401 -0.699,0.704 0,0.498 0.401,0.703 1.402,0.703 3.999,0 9.897,-0.205 10.4,-0.205 0.899,0 8.301,0.205 11.001,0.205 5.601,0 11.802,-0.503 16.406,-3.702 2.198,-1.601 6.099,-5.703 6.099,-11.601 0,-6.304 -2.598,-12.402 -10.801,-19.404 7.202,-9.004 13.301,-16.709 18.404,-22.007 4.702,-4.8 7.602,-5.601 9.799,-5.904 1.705,-0.297 2.603,-0.297 3.101,-0.297 0.503,0 0.801,-0.401 0.801,-0.699 0,-0.503 -0.498,-0.703 -2.1,-0.703 h -5.498 c -5.005,0 -7.202,0.498 -9.404,1.699 -3.799,2.002 -7.002,6.104 -12.002,12.505 -3.701,4.6 -7.603,10.103 -9.502,12.403 -0.4,0.4 -0.601,0.503 -1.201,0.503 L 0.601,-5.205 C 0.2,-5.205 0,-5.4 0,-5.903 v -2.002 c 0,-8.199 0,-14.8 0.4,-18.306 0.298,-2.5 0.801,-4.101 3.501,-4.497 1.202,-0.2 3.101,-0.4 3.902,-0.4 0.6,0 0.698,-0.401 0.698,-0.699 0,-0.4 -0.4,-0.703 -1.401,-0.703 -4.8,0 -10.401,0.303 -10.801,0.303 -0.103,0 -6.001,-0.303 -8.701,-0.303 -0.904,0 -1.402,0.2 -1.402,0.703 0,0.298 0.2,0.699 0.699,0.699 0.8,0 1.904,0.2 2.705,0.4 1.699,0.396 1.899,1.997 2.299,4.497 0.498,3.506 0.498,10.205 0.498,18.408 z" /></g><g
           transform="translate(318.0298,505.9795)"
           id="g84"><path
             id="path86"
             style="fill:#404041;fill-opacity:1;fill-rule:nonzero;stroke:none"
             d="m 0,0 c 0,15.718 -5.823,27.656 -17.458,35.82 -3.604,2.52 -8.584,3.96 -14.942,4.322 -2.283,0.117 -4.861,0.175 -7.739,0.175 -0.72,0 -1.082,-0.42 -1.082,-1.259 V -3.599 c 0,-6.24 0.362,-10.322 1.082,-12.241 0.718,-2.28 2.456,-3.96 5.217,-5.044 3.482,-1.435 7.861,-2.158 13.142,-2.158 5.398,0 10.017,1.499 13.858,4.502 C -2.642,-14.463 0,-8.281 0,0 M -41.221,94.683 V 50.22 c 0,-1.084 0.42,-1.739 1.263,-1.983 1.557,-0.361 4.377,-0.537 8.459,-0.537 5.876,0 10.195,1.138 12.959,3.418 4.919,4.082 7.38,10.44 7.38,19.082 0,6.953 -1.799,13.14 -5.4,18.535 -4.321,6.241 -10.02,9.366 -17.1,9.366 -4.079,0 -6.364,-0.245 -6.84,-0.723 -0.481,-0.479 -0.721,-1.377 -0.721,-2.695 M -62.82,21.597 v 31.679 c 0,21.485 -0.122,34.204 -0.361,38.164 -0.359,5.757 -2.942,9.18 -7.739,10.254 -1.683,0.362 -4.021,0.547 -7.019,0.547 -2.044,0 -3.062,0.537 -3.062,1.616 0,1.08 1.318,1.622 3.96,1.622 3.718,0 8.55,-0.093 14.492,-0.269 5.938,-0.181 9.27,-0.273 9.988,-0.273 3.12,0 7.109,0.092 11.97,0.273 4.861,0.176 8.191,0.269 9.99,0.269 14.4,0 24.839,-3.301 31.321,-9.898 4.678,-4.683 7.019,-10.381 7.019,-17.1 0,-11.162 -6.12,-21.665 -18.359,-31.503 8.76,-2.999 16.079,-7.5 21.96,-13.497 7.2,-7.324 10.799,-15.781 10.799,-25.38 0,-10.562 -3.841,-19.502 -11.519,-26.822 -8.882,-8.276 -21.059,-12.422 -36.54,-12.422 -1.321,0 -5.52,0.181 -12.601,0.542 -7.082,0.362 -11.582,0.538 -13.5,0.538 -1.08,0 -4.471,-0.088 -10.169,-0.269 -5.701,-0.181 -9.871,-0.269 -12.51,-0.269 -2.402,0 -3.601,0.596 -3.601,1.797 0,0.84 1.319,1.382 3.96,1.621 1.799,0.245 3.599,0.42 5.401,0.537 2.758,0.606 4.502,3.907 5.219,9.903 0.601,4.682 0.901,17.461 0.901,38.34" /></g><g
           transform="translate(396.1475,559.2559)"
           id="g88"><path
             id="path90"
             style="fill:#404041;fill-opacity:1;fill-rule:nonzero;stroke:none"
             d="m 0,0 v -31.68 c 0,-13.559 0.181,-22.5 0.54,-26.816 0.476,-6.484 1.557,-10.44 3.239,-11.885 2.998,-2.637 10.262,-3.955 21.78,-3.955 10.918,0 17.937,1.68 21.06,5.039 2.639,2.881 4.199,6.48 4.68,10.801 0.239,1.797 0.901,2.7 1.98,2.7 0.959,0 1.44,-1.02 1.44,-3.061 0,-7.198 -0.901,-14.102 -2.7,-20.704 -0.72,-2.519 -2.158,-4.013 -4.319,-4.497 -0.842,-0.239 -3.181,-0.361 -7.021,-0.361 -9.602,0 -19.742,0.181 -30.42,0.542 -10.681,0.361 -18.001,0.537 -21.961,0.537 -1.079,0 -4.47,-0.088 -10.168,-0.268 -5.701,-0.181 -9.873,-0.269 -12.512,-0.269 -2.4,0 -3.599,0.596 -3.599,1.797 0,0.84 1.318,1.382 3.96,1.621 1.799,0.244 3.599,0.42 5.4,0.537 2.759,0.606 4.5,3.906 5.22,9.902 0.598,4.683 0.901,17.461 0.901,38.34 V 0 c 0,21.484 -0.122,34.204 -0.361,38.164 -0.242,4.434 -1.56,7.441 -3.96,8.999 -1.919,1.196 -5.161,1.802 -9.72,1.802 -2.041,0 -3.061,0.537 -3.061,1.616 0,1.079 1.321,1.621 3.962,1.621 3.118,0 7.676,-0.093 13.68,-0.268 5.998,-0.181 9.658,-0.274 10.979,-0.274 1.198,0 4.951,0.093 11.25,0.274 6.301,0.175 10.71,0.268 13.23,0.268 2.522,0 3.779,-0.542 3.779,-1.621 0,-1.079 -1.079,-1.616 -3.237,-1.616 -2.642,0 -4.983,-0.186 -7.022,-0.547 C 2.937,47.705 0.72,44.282 0.359,38.164 0.117,34.204 0,21.484 0,0" /></g><g
           transform="translate(541.7627,542.1562)"
           id="g92"><path
             id="path94"
             style="fill:#404041;fill-opacity:1;fill-rule:nonzero;stroke:none"
             d="m 0,0 v -14.58 c 0,-20.278 0.303,-33.057 0.908,-38.34 0.725,-5.996 3.086,-9.297 7.085,-9.902 3.506,-0.479 6.538,-0.713 9.08,-0.713 2.06,0 3.088,-0.484 3.088,-1.445 0,-1.202 -1.323,-1.797 -3.96,-1.797 -4.319,0 -9.719,0.088 -16.201,0.268 -6.479,0.181 -10.2,0.269 -11.16,0.269 -1.32,0 -4.831,-0.088 -10.527,-0.269 -5.703,-0.18 -9.812,-0.268 -12.332,-0.268 -2.519,0 -3.779,0.595 -3.779,1.797 0,0.839 1.319,1.381 3.96,1.621 1.677,0.244 3.418,0.42 5.22,0.537 2.759,0.605 4.499,3.906 5.22,9.902 0.598,4.683 0.9,17.461 0.9,38.34 V 17.1 c 0,21.484 -0.122,34.204 -0.361,38.164 -0.361,5.757 -2.942,9.179 -7.742,10.254 -1.679,0.361 -4.021,0.546 -7.016,0.546 -2.044,0 -3.062,0.479 -3.062,1.436 0,1.201 1.377,1.802 4.141,1.802 3.476,0 8.306,-0.093 14.49,-0.269 6.179,-0.18 9.987,-0.273 11.43,-0.273 29.158,0 45,0.058 47.517,0.185 1.922,0 4.383,0.235 7.383,0.718 2.278,0.718 3.24,1.079 2.879,1.079 0.839,0 1.262,-0.542 1.262,-1.621 0,-0.361 -0.181,-1.26 -0.542,-2.7 -0.359,-1.802 -0.662,-3.599 -0.901,-5.4 -0.242,-4.078 -0.54,-8.941 -0.901,-14.576 -0.242,-1.689 -0.837,-2.524 -1.797,-2.524 -1.081,0 -1.682,0.947 -1.802,2.847 0,2.968 -0.363,5.219 -1.084,6.762 -1.569,3.443 -5.542,5.22 -11.931,5.337 L 1.626,59.404 C 0.54,59.404 0,58.564 0,56.904 V 12.231 c 0,-1.074 0.42,-1.606 1.265,-1.606 h 23.137 c 5.058,0 7.893,0.059 8.494,0.176 3.493,0.361 5.964,1.44 7.409,3.242 0.962,1.201 1.751,1.797 2.351,1.797 0.72,0 1.087,-0.537 1.087,-1.621 0,-0.24 -0.186,-1.558 -0.545,-3.955 C 42.837,7.5 42.534,5.098 42.297,3.062 41.814,-1.86 41.572,-6.24 41.572,-10.078 c 0,-2.28 -0.603,-3.418 -1.806,-3.418 -0.725,0 -1.267,1.138 -1.626,3.418 -0.367,1.557 -0.664,3.12 -0.906,4.678 -1.328,3.72 -4.4,5.879 -9.219,6.484 C 25.127,1.445 16.206,1.621 1.265,1.621 0.42,1.621 0,1.084 0,0" /></g><g
           transform="translate(622.5806,527.5762)"
           id="g96"><path
             id="path98"
             style="fill:#404041;fill-opacity:1;fill-rule:nonzero;stroke:none"
             d="m 0,0 v 31.68 c 0,21.484 -0.117,34.204 -0.354,38.164 -0.361,5.757 -2.405,9.116 -6.123,10.078 -2.044,0.478 -4.114,0.723 -6.209,0.723 -2.102,0 -3.151,0.595 -3.151,1.796 0,0.957 1.442,1.441 4.321,1.441 2.397,0 6.506,-0.093 12.329,-0.269 5.82,-0.18 9.512,-0.273 11.072,-0.273 1.318,0 4.68,0.093 10.08,0.273 5.396,0.176 9.356,0.269 11.878,0.269 2.519,0 3.779,-0.484 3.779,-1.441 0,-1.201 -0.862,-1.796 -2.578,-1.796 -1.719,0 -3.586,-0.186 -5.603,-0.547 C 25.41,79.385 23.213,75.962 22.856,69.844 22.62,65.884 22.5,53.164 22.5,31.68 V 0 c 0,-21.479 0.239,-34.619 0.718,-39.414 0.473,-5.283 2.851,-8.223 7.136,-8.828 3.445,-0.479 6.477,-0.713 9.092,-0.713 1.904,0 2.856,-0.483 2.856,-1.445 0,-1.202 -1.142,-1.797 -3.418,-1.797 -4.563,0 -10.112,0.088 -16.65,0.268 -6.546,0.181 -10.349,0.269 -11.431,0.269 -1.081,0 -4.475,-0.088 -10.168,-0.269 -5.701,-0.18 -9.876,-0.268 -12.512,-0.268 -2.4,0 -3.599,0.595 -3.599,1.797 0,0.839 1.318,1.381 3.96,1.621 1.802,0.244 3.599,0.42 5.4,0.537 2.879,0.605 4.619,3.574 5.22,8.916 C -0.298,-33.989 0,-20.879 0,0" /></g><g
           transform="translate(703.5815,575.457)"
           id="g100"><path
             id="path102"
             style="fill:#404041;fill-opacity:1;fill-rule:nonzero;stroke:none"
             d="m 0,0 1.978,-75.601 c 0.361,-11.997 2.46,-18.657 6.301,-19.975 0.361,-0.127 2.698,-0.425 7.019,-0.899 3.598,-0.483 5.4,-1.084 5.4,-1.806 0,-1.201 -1.379,-1.797 -4.14,-1.797 -4.561,0 -9.302,0.088 -14.219,0.268 -4.922,0.181 -7.622,0.269 -8.101,0.269 0.12,0 -2.16,-0.088 -6.841,-0.269 -4.68,-0.18 -8.881,-0.268 -12.6,-0.268 -2.641,0 -3.96,0.596 -3.96,1.797 0,0.84 1.56,1.382 4.681,1.621 2.163,0.244 4.257,0.478 6.301,0.722 2.278,0.718 3.779,2.637 4.502,5.762 0.596,2.754 0.957,8.277 1.076,16.553 l 1.622,106.562 c 0.117,4.082 0.9,6.124 2.341,6.124 0.959,0 3.179,-1.866 6.658,-5.582 C 7.856,22.92 26.46,3.662 53.821,-24.297 66.06,-37.021 79.255,-50.703 93.418,-65.342 h 0.901 l -1.802,80.821 c -0.117,4.443 -0.359,7.5 -0.72,9.179 -0.962,3.604 -2.759,5.943 -5.401,7.022 -1.796,0.722 -4.978,1.084 -9.536,1.084 -1.923,0 -2.883,0.537 -2.883,1.616 0,1.079 1.56,1.621 4.68,1.621 3.599,0 7.92,-0.093 12.959,-0.269 5.042,-0.18 7.981,-0.273 8.821,-0.273 0.12,0 2.219,0.093 6.301,0.273 4.08,0.176 7.859,0.269 11.338,0.269 2.761,0 4.141,-0.542 4.141,-1.621 0,-1.079 -1.077,-1.616 -3.24,-1.616 -6.003,0 -9.658,-1.983 -10.977,-5.943 -0.603,-2.163 -0.961,-5.464 -1.081,-9.897 L 104.937,-96.66 c -0.118,-3.716 -0.901,-5.576 -2.337,-5.576 -1.323,0 -3.362,1.318 -6.123,3.955 -11.519,11.401 -29.219,29.043 -53.098,52.92 -8.162,8.037 -17.341,17.578 -27.542,28.623 C 10.679,-11.099 5.576,-5.518 0.537,0 Z" /></g><g
           transform="translate(868.1006,531.3555)"
           id="g104"><path
             id="path106"
             style="fill:#404041;fill-opacity:1;fill-rule:nonzero;stroke:none"
             d="m 0,0 h 33.12 c 0.835,0 1.138,0.361 0.896,1.084 L 17.82,45.542 c -0.242,1.079 -0.542,1.621 -0.901,1.621 -0.481,0 -0.84,-0.542 -1.082,-1.621 L -0.723,1.26 C -0.964,0.42 -0.723,0 0,0 M 36.541,-8.999 H -3.601 c -0.72,0 -1.26,-0.483 -1.621,-1.44 l -9.719,-25.743 c -1.8,-4.795 -2.701,-8.457 -2.701,-10.976 0,-3.721 2.4,-5.576 7.2,-5.576 h 2.703 c 1.797,0 2.697,-0.484 2.697,-1.446 0,-1.201 -1.02,-1.797 -3.059,-1.797 -1.919,0 -5.131,0.088 -9.631,0.269 -4.502,0.181 -7.646,0.269 -9.448,0.269 -10.442,-0.362 -17.522,-0.538 -21.24,-0.538 -2.281,0 -3.418,0.596 -3.418,1.797 0,0.962 0.715,1.446 2.158,1.446 1.919,0 3.779,0.117 5.581,0.361 3.835,0.474 6.955,2.158 9.36,5.034 1.914,2.28 3.897,6.001 5.935,11.157 L 16.377,76.865 c 1.921,4.795 3.603,7.198 5.041,7.198 1.319,0 2.82,-1.919 4.5,-5.762 11.04,-27.842 25.918,-64.737 44.639,-110.698 5.041,-11.88 10.319,-18.423 15.842,-19.624 2.158,-0.479 4.68,-0.713 7.559,-0.713 1.56,0 2.343,-0.484 2.343,-1.446 0,-0.717 -0.603,-1.201 -1.801,-1.435 -1.202,-0.244 -3.362,-0.362 -6.482,-0.362 -14.881,0 -26.219,0.118 -34.019,0.362 -3.599,0.117 -5.4,0.595 -5.4,1.435 0,0.962 0.839,1.504 2.522,1.621 1.916,0.601 2.456,1.983 1.616,4.141 l -14.4,38.164 c -0.356,0.835 -0.959,1.255 -1.796,1.255" /></g><g
           transform="translate(982.7612,575.457)"
           id="g108"><path
             id="path110"
             style="fill:#404041;fill-opacity:1;fill-rule:nonzero;stroke:none"
             d="m 0,0 1.978,-75.601 c 0.361,-11.997 2.46,-18.657 6.301,-19.975 0.361,-0.127 2.7,-0.425 7.019,-0.899 3.598,-0.483 5.4,-1.084 5.4,-1.806 0,-1.201 -1.379,-1.797 -4.138,-1.797 -4.563,0 -9.304,0.088 -14.221,0.268 -4.922,0.181 -7.62,0.269 -8.101,0.269 0.12,0 -2.16,-0.088 -6.841,-0.269 -4.68,-0.18 -8.881,-0.268 -12.6,-0.268 -2.641,0 -3.96,0.596 -3.96,1.797 0,0.84 1.56,1.382 4.681,1.621 2.163,0.244 4.26,0.478 6.303,0.722 2.276,0.718 3.78,2.637 4.5,5.762 0.598,2.754 0.957,8.277 1.076,16.553 l 1.622,106.562 c 0.119,4.082 0.9,6.124 2.341,6.124 0.959,0 3.179,-1.866 6.658,-5.582 C 7.859,22.92 26.46,3.662 53.821,-24.297 66.06,-37.021 79.255,-50.703 93.42,-65.342 h 0.901 L 92.52,15.479 c -0.12,4.443 -0.362,7.5 -0.723,9.179 -0.962,3.604 -2.759,5.943 -5.401,7.022 -1.796,0.722 -4.978,1.084 -9.536,1.084 -1.923,0 -2.883,0.537 -2.883,1.616 0,1.079 1.56,1.621 4.68,1.621 3.601,0 7.92,-0.093 12.962,-0.269 5.039,-0.18 7.978,-0.273 8.818,-0.273 0.12,0 2.219,0.093 6.301,0.273 4.08,0.176 7.859,0.269 11.338,0.269 2.761,0 4.141,-0.542 4.141,-1.621 0,-1.079 -1.077,-1.616 -3.24,-1.616 -6.001,0 -9.658,-1.983 -10.977,-5.943 -0.603,-2.163 -0.961,-5.464 -1.081,-9.897 L 104.937,-96.66 c -0.118,-3.716 -0.901,-5.576 -2.337,-5.576 -1.323,0 -3.362,1.318 -6.123,3.955 -11.516,11.401 -29.219,29.043 -53.098,52.92 -8.162,8.037 -17.341,17.578 -27.542,28.623 C 10.679,-11.099 5.576,-5.518 0.537,0 Z" /></g><g
           transform="translate(1146.7383,485.8184)"
           id="g112"><path
             id="path114"
             style="fill:#404041;fill-opacity:1;fill-rule:nonzero;stroke:none"
             d="m 0,0 h 44.28 c 15.241,0 24.663,3.301 28.262,9.902 1.56,2.881 2.636,5.762 3.239,8.638 0.359,1.919 0.962,2.881 1.802,2.881 1.199,0 1.797,-1.86 1.797,-5.581 0,-6.001 -1.201,-13.32 -3.599,-21.963 -0.84,-3.115 -2.641,-4.678 -5.403,-4.678 -9.477,0 -24.809,0.156 -45.988,0.449 -21.182,0.303 -38.069,0.45 -50.669,0.45 -2.044,0 -3.057,0.605 -3.057,1.806 0,0.84 0.896,2.647 2.698,5.41 l 76.14,118.428 H 14.221 c -12.722,0 -21.362,-1.269 -25.918,-3.813 -3.125,-1.695 -5.4,-3.999 -6.843,-6.9 -0.601,-1.093 -1.677,-4.052 -3.237,-8.896 -0.362,-1.089 -0.965,-1.631 -1.802,-1.631 -0.964,0 -1.438,1.011 -1.438,3.042 0,2.144 1.196,10.737 3.599,25.776 0.361,2.266 1.081,3.399 2.168,3.399 0.358,0 1.232,-0.161 2.617,-0.489 1.384,-0.322 2.92,-0.537 4.607,-0.644 8.669,-0.322 19.753,-0.488 33.239,-0.488 h 55.098 c 2.048,0 3.069,-0.479 3.069,-1.436 0,-0.723 -0.484,-1.865 -1.443,-3.423 C 65.154,99.6 39.177,59.521 0,0" /></g><g
           transform="translate(1255.459,527.5762)"
           id="g116"><path
             id="path118"
             style="fill:#404041;fill-opacity:1;fill-rule:nonzero;stroke:none"
             d="m 0,0 v 31.68 c 0,21.484 -0.122,34.204 -0.359,38.164 -0.362,5.757 -2.944,9.179 -7.744,10.254 -1.677,0.361 -4.021,0.547 -7.017,0.547 -2.043,0 -3.064,0.537 -3.064,1.616 0,1.079 1.324,1.621 3.965,1.621 3.599,0 8.484,-0.093 14.668,-0.269 6.182,-0.18 9.927,-0.273 11.25,-0.273 2.403,0 6.626,0.093 12.691,0.273 6.059,0.176 10.532,0.269 13.408,0.269 15.122,0 26.279,-3.423 33.481,-10.259 5.996,-5.644 9.004,-12.783 9.004,-21.421 0,-12.72 -4.179,-23.159 -12.514,-31.318 C 59.429,12.72 48.838,8.643 35.996,8.643 c -1.919,0 -3.174,0.058 -3.779,0.175 -1.436,0.245 -2.158,0.782 -2.158,1.621 0,1.324 1.679,1.983 5.039,1.983 5.639,0 10.918,2.637 15.84,7.92 5.517,5.996 8.281,13.262 8.281,21.777 0,11.641 -3.54,20.645 -10.615,27.002 -5.166,4.678 -11.163,7.022 -18.003,7.022 -3.365,0 -5.611,-0.215 -6.753,-0.635 -1.143,-0.42 -1.709,-1.587 -1.709,-3.506 V 0 c 0,-20.4 0.293,-33.237 0.898,-38.516 0.723,-5.879 3.067,-9.121 7.022,-9.726 3.476,-0.479 6.543,-0.713 9.179,-0.713 1.914,0 2.881,-0.483 2.881,-1.445 0,-1.202 -1.142,-1.797 -3.418,-1.797 -4.56,0 -10.117,0.088 -16.65,0.268 -6.543,0.181 -10.293,0.269 -11.25,0.269 -1.084,0 -4.473,-0.088 -10.171,-0.269 -5.701,-0.18 -9.876,-0.268 -12.512,-0.268 -2.4,0 -3.599,0.595 -3.599,1.797 0,0.839 1.318,1.381 3.96,1.621 1.802,0.244 3.599,0.42 5.4,0.537 2.76,0.605 4.5,3.906 5.221,9.902 C -0.303,-33.657 0,-20.879 0,0" /></g><g
           transform="translate(1385.957,599.7588)"
           id="g120"><path
             id="path122"
             style="fill:#404041;fill-opacity:1;fill-rule:nonzero;stroke:none"
             d="m 0,0 v -54.722 c 0,-1.797 0.537,-2.881 1.616,-3.237 3.364,-1.206 7.925,-1.802 13.677,-1.802 5.762,0 10.019,1.016 12.783,3.057 7.08,5.166 10.62,14.16 10.62,27.002 0,11.401 -3.237,20.098 -9.721,26.103 C 23.818,0.957 17.876,3.237 11.157,3.237 5.4,3.237 1.973,2.881 0.898,2.163 0.298,1.802 0,1.079 0,0 m -21.245,-72.183 v 31.68 c 0,21.484 -0.117,34.204 -0.357,38.164 -0.361,5.757 -2.944,9.18 -7.744,10.254 -1.679,0.361 -4.018,0.547 -7.016,0.547 -2.046,0 -3.062,0.537 -3.062,1.616 0,1.079 1.319,1.621 3.965,1.621 3.716,0 8.574,-0.093 14.575,-0.268 6.001,-0.181 9.361,-0.274 10.083,-0.274 2.036,0 6.328,0.093 12.871,0.274 6.538,0.175 10.708,0.268 12.505,0.268 14.517,0 25.562,-2.583 33.12,-7.739 2.998,-2.041 5.64,-5.103 7.92,-9.18 2.881,-4.804 4.322,-9.961 4.322,-15.478 0,-14.043 -7.92,-27.481 -23.755,-40.323 13.076,-16.562 20.273,-25.561 21.596,-27.001 6.958,-8.76 12.779,-15.538 17.456,-20.342 6.602,-6.836 13.321,-10.918 20.166,-12.237 1.436,-0.117 2.813,-0.244 4.141,-0.361 2.036,-0.239 3.057,-0.781 3.057,-1.621 0,-1.201 -1.143,-1.797 -3.418,-1.797 H 82.075 c -8.637,0 -15.063,1.143 -19.258,3.418 -5.879,3.12 -14.101,11.943 -24.663,26.465 -5.156,7.314 -11.098,15.596 -17.817,24.834 -0.718,0.84 -1.797,1.26 -3.237,1.26 H 1.436 C 0.479,-68.403 0,-68.877 0,-69.829 v -2.5 c 0,-20.264 0.298,-33.018 0.898,-38.262 0.718,-6.074 3.057,-9.355 7.022,-9.834 3.594,-0.478 6.533,-0.713 8.818,-0.713 1.441,0 2.158,-0.483 2.158,-1.445 0,-1.201 -1.201,-1.797 -3.603,-1.797 -4.072,0 -9.443,0.088 -16.108,0.269 -6.656,0.18 -10.108,0.268 -10.347,0.268 -0.84,0 -4.024,-0.088 -9.541,-0.268 -5.518,-0.181 -9.658,-0.269 -12.422,-0.269 -2.397,0 -3.594,0.596 -3.594,1.797 0,0.84 1.319,1.382 3.955,1.621 1.802,0.244 3.604,0.42 5.401,0.537 2.763,0.606 4.502,3.906 5.224,9.903 0.596,4.682 0.894,17.46 0.894,38.339" /></g><g
           transform="translate(1562.5391,625.3203)"
           id="g124"><path
             id="path126"
             style="fill:#404041;fill-opacity:1;fill-rule:nonzero;stroke:none"
             d="m 0,0 c -5.4,0 -8.101,2.813 -8.101,8.457 0,2.041 0.718,3.96 2.154,5.762 1.445,1.797 3.486,2.7 6.123,2.7 5.639,0 8.462,-2.642 8.462,-7.92 C 8.638,6.479 7.832,4.346 6.206,2.607 4.585,0.869 2.515,0 0,0 m -37.983,0 c -5.406,0 -8.101,2.847 -8.101,8.545 0,2.065 0.723,3.975 2.163,5.732 1.436,1.758 3.477,2.642 6.118,2.642 5.635,0 8.457,-2.612 8.457,-7.827 0,-2.549 -0.81,-4.697 -2.431,-6.455 C -33.389,0.879 -35.459,0 -37.983,0 m -40.142,-92.344 v 26.28 c 0,21.484 -0.117,34.204 -0.361,38.164 -0.362,5.756 -2.94,9.179 -7.735,10.254 -1.684,0.361 -4.023,0.546 -7.021,0.546 -2.041,0 -3.062,0.538 -3.062,1.617 0,1.079 1.319,1.621 3.96,1.621 3.477,0 8.369,-0.093 14.673,-0.269 6.294,-0.181 10.171,-0.273 11.607,-0.273 1.318,0 4.77,0.092 10.351,0.273 5.576,0.176 9.507,0.269 11.792,0.269 2.637,0 3.96,-0.542 3.96,-1.626 0,-1.079 -0.967,-1.621 -2.881,-1.621 -1.44,0 -3.183,-0.176 -5.224,-0.537 -4.078,-0.723 -6.299,-4.151 -6.661,-10.274 -0.239,-3.965 -0.356,-16.709 -0.356,-38.213 v -25.234 c 0,-21.875 4.683,-36.651 14.038,-44.346 6.001,-4.927 13.501,-7.392 22.5,-7.392 10.083,0 18.359,3.247 24.839,9.736 4.438,4.443 7.441,10.815 8.999,19.106 0.967,5.528 1.445,14.058 1.445,25.601 v 22.529 c 0,21.504 -0.117,34.248 -0.361,38.213 -0.361,5.762 -2.939,9.19 -7.739,10.274 -1.685,0.361 -3.843,0.537 -6.48,0.537 -2.041,0 -3.061,0.542 -3.061,1.621 0,1.084 1.264,1.626 3.779,1.626 5.278,0 12.178,-0.181 20.703,-0.542 0.357,0 3.179,0.092 8.462,0.273 5.273,0.176 9.292,0.269 12.056,0.269 2.514,0 3.779,-0.542 3.779,-1.621 0,-1.079 -1.079,-1.617 -3.237,-1.617 -1.446,0 -3.184,-0.185 -5.225,-0.546 -4.082,-0.713 -6.299,-4.136 -6.66,-10.254 -0.244,-3.96 -0.357,-16.68 -0.357,-38.164 v -19.258 c 0,-12.237 -0.961,-22.139 -2.88,-29.698 -2.642,-10.444 -7.378,-18.603 -14.224,-24.482 -10.078,-8.643 -22.559,-12.959 -37.432,-12.959 -17.529,0 -30.849,4.141 -39.961,12.422 -10.683,9.595 -16.025,25.498 -16.025,47.695" /></g><g
           transform="translate(1659.1895,542.1562)"
           id="g128"><path
             id="path130"
             style="fill:#404041;fill-opacity:1;fill-rule:nonzero;stroke:none"
             d="m 0,0 v -14.58 c 0,-20.278 0.303,-33.057 0.908,-38.34 0.728,-5.996 3.086,-9.297 7.085,-9.902 3.511,-0.479 6.538,-0.713 9.077,-0.713 2.061,0 3.096,-0.484 3.096,-1.445 0,-1.202 -1.328,-1.797 -3.965,-1.797 -4.316,0 -9.717,0.088 -16.201,0.268 -6.475,0.181 -10.2,0.269 -11.157,0.269 -1.323,0 -4.834,-0.088 -10.532,-0.269 -5.704,-0.18 -9.81,-0.268 -12.33,-0.268 -2.514,0 -3.779,0.595 -3.779,1.797 0,0.839 1.319,1.381 3.96,1.621 1.68,0.244 3.418,0.42 5.225,0.537 2.754,0.605 4.497,3.906 5.215,9.902 0.6,4.683 0.898,17.461 0.898,38.34 V 17.1 c 0,21.484 -0.117,34.204 -0.356,38.164 -0.357,5.757 -2.945,9.179 -7.74,10.254 -1.679,0.361 -4.023,0.546 -7.021,0.546 -2.041,0 -3.062,0.479 -3.062,1.436 0,1.201 1.382,1.802 4.146,1.802 3.476,0 8.301,-0.093 14.487,-0.269 6.177,-0.18 9.985,-0.273 11.431,-0.273 29.155,0 45,0.058 47.519,0.185 1.914,0 4.375,0.235 7.383,0.718 2.276,0.718 3.233,1.079 2.876,1.079 0.84,0 1.26,-0.542 1.26,-1.621 0,-0.361 -0.181,-1.26 -0.542,-2.7 -0.361,-1.802 -0.664,-3.599 -0.899,-5.4 -0.244,-4.078 -0.537,-8.941 -0.898,-14.576 -0.244,-1.689 -0.84,-2.524 -1.797,-2.524 -1.084,0 -1.689,0.947 -1.807,2.847 0,2.968 -0.361,5.219 -1.084,6.762 -1.567,3.443 -5.542,5.22 -11.933,5.337 L 1.626,59.404 C 0.542,59.404 0,58.564 0,56.904 V 12.231 c 0,-1.074 0.42,-1.606 1.27,-1.606 h 23.134 c 5.059,0 7.891,0.059 8.496,0.176 3.492,0.361 5.962,1.44 7.408,3.242 0.962,1.201 1.748,1.797 2.348,1.797 0.723,0 1.084,-0.537 1.084,-1.621 0,-0.24 -0.18,-1.558 -0.542,-3.955 C 42.842,7.5 42.534,5.098 42.295,3.062 41.816,-1.86 41.572,-6.24 41.572,-10.078 c 0,-2.28 -0.6,-3.418 -1.806,-3.418 -0.723,0 -1.265,1.138 -1.626,3.418 -0.367,1.557 -0.66,3.12 -0.904,4.678 -1.328,3.72 -4.399,5.879 -9.218,6.484 C 25.127,1.445 16.211,1.621 1.27,1.621 0.42,1.621 0,1.084 0,0" /></g><g
           transform="translate(1740.0098,527.5762)"
           id="g132"><path
             id="path134"
             style="fill:#404041;fill-opacity:1;fill-rule:nonzero;stroke:none"
             d="m 0,0 v 31.68 c 0,21.484 -0.117,34.204 -0.356,38.164 -0.357,5.757 -2.945,9.179 -7.74,10.254 -1.679,0.361 -4.023,0.547 -7.021,0.547 -2.041,0 -3.067,0.537 -3.067,1.616 0,1.079 1.329,1.621 3.965,1.621 3.604,0 8.487,-0.093 14.668,-0.269 6.182,-0.18 9.932,-0.273 11.25,-0.273 28.447,0 43.443,0.058 45,0.185 3.125,0.235 5.698,0.596 7.744,1.075 2.036,0.478 2.998,0.722 2.876,0.722 0.718,0 1.079,-0.542 1.079,-1.621 0,-0.117 -0.175,-1.201 -0.537,-3.242 -0.366,-2.402 -0.634,-5.215 -0.81,-8.457 -0.186,-3.242 -0.518,-7.197 -0.996,-11.88 -0.244,-1.323 -0.85,-1.977 -1.812,-1.977 -0.845,0 -1.352,0.654 -1.533,1.977 -0.181,1.323 -0.337,2.578 -0.454,3.784 -0.122,1.192 -0.361,2.276 -0.723,3.233 -1.445,3.486 -5.478,5.644 -12.104,6.484 -4.097,0.479 -12.652,0.723 -25.664,0.723 -0.845,0 -1.265,-0.606 -1.265,-1.807 V 27.002 c 0,-1.323 0.42,-1.982 1.265,-1.982 16.508,0 26.152,0.122 28.925,0.361 2.046,0.117 3.614,0.298 4.698,0.542 1.806,0.473 3.134,1.196 3.979,2.163 1.446,1.553 2.407,2.334 2.891,2.334 0.84,0 1.264,-0.479 1.264,-1.436 0,-0.127 -0.185,-1.323 -0.542,-3.603 C 64.619,22.617 64.316,19.443 64.077,15.84 63.594,9.004 63.35,4.98 63.35,3.779 c 0,-2.275 -0.537,-3.418 -1.621,-3.418 -1.089,0 -1.631,0.635 -1.631,1.89 0,1.26 -0.24,3.335 -0.723,6.211 -0.962,4.077 -4.336,6.421 -10.122,7.017 -3.374,0.361 -11.929,0.546 -25.669,0.546 -0.723,0 -1.084,-0.605 -1.084,-1.801 V -27.9 c 0.244,-6.358 1.66,-10.469 4.248,-12.325 2.588,-1.865 8.403,-2.793 17.441,-2.793 8.189,0 13.848,0.723 16.983,2.159 4.214,1.919 6.924,6.357 8.13,13.32 0.361,1.797 1.02,2.7 1.982,2.7 0.957,0 1.436,-1.079 1.436,-3.237 0,-7.324 -0.782,-13.985 -2.339,-19.981 -0.601,-2.163 -1.441,-3.481 -2.52,-3.964 -1.074,-0.474 -3.481,-0.718 -7.197,-0.718 -10.444,0 -20.82,0.18 -31.143,0.542 -10.322,0.361 -16.557,0.537 -18.72,0.537 -1.079,0 -4.473,-0.088 -10.166,-0.269 -5.703,-0.18 -9.873,-0.268 -12.51,-0.268 -2.402,0 -3.604,0.595 -3.604,1.797 0,0.839 1.319,1.381 3.96,1.621 1.802,0.244 3.599,0.42 5.401,0.537 2.759,0.605 4.502,3.906 5.22,9.902 C -0.298,-33.657 0,-20.879 0,0" /></g><g
           transform="translate(1866.3672,599.7588)"
           id="g136"><path
             id="path138"
             style="fill:#404041;fill-opacity:1;fill-rule:nonzero;stroke:none"
             d="m 0,0 v -54.722 c 0,-1.797 0.547,-2.881 1.621,-3.237 3.359,-1.206 7.92,-1.802 13.682,-1.802 5.761,0 10.019,1.016 12.773,3.057 7.08,5.166 10.625,14.16 10.625,27.002 0,11.401 -3.242,20.098 -9.722,26.103 C 23.818,0.957 17.881,3.237 11.162,3.237 5.4,3.237 1.982,2.881 0.903,2.163 0.303,1.802 0,1.079 0,0 m -21.24,-72.183 v 31.68 c 0,21.484 -0.117,34.204 -0.357,38.164 -0.356,5.757 -2.944,9.18 -7.739,10.254 -1.68,0.361 -4.023,0.547 -7.021,0.547 -2.041,0 -3.067,0.537 -3.067,1.616 0,1.079 1.328,1.621 3.965,1.621 3.721,0 8.584,-0.093 14.58,-0.268 5.996,-0.181 9.36,-0.274 10.078,-0.274 2.041,0 6.328,0.093 12.871,0.274 6.543,0.175 10.713,0.268 12.51,0.268 14.522,0 25.562,-2.583 33.12,-7.739 2.998,-2.041 5.64,-5.103 7.92,-9.18 2.886,-4.804 4.321,-9.961 4.321,-15.478 0,-14.043 -7.92,-27.481 -23.759,-40.323 13.076,-16.562 20.278,-25.561 21.601,-27.001 6.953,-8.76 12.779,-15.538 17.461,-20.342 6.592,-6.836 13.32,-10.918 20.156,-12.237 1.441,-0.117 2.823,-0.244 4.141,-0.361 2.041,-0.239 3.062,-0.781 3.062,-1.621 0,-1.201 -1.143,-1.797 -3.423,-1.797 h -17.1 c -8.642,0 -15.059,1.143 -19.258,3.418 -5.879,3.12 -14.101,11.943 -24.658,26.465 -5.166,7.314 -11.103,15.596 -17.822,24.834 -0.723,0.84 -1.797,1.26 -3.242,1.26 H 1.44 C 0.479,-68.403 0,-68.877 0,-69.829 v -2.5 c 0,-20.264 0.303,-33.018 0.903,-38.262 0.718,-6.074 3.062,-9.355 7.017,-9.834 3.603,-0.478 6.543,-0.713 8.818,-0.713 1.446,0 2.168,-0.483 2.168,-1.445 0,-1.201 -1.206,-1.797 -3.603,-1.797 -4.082,0 -9.453,0.088 -16.114,0.269 -6.66,0.18 -10.107,0.268 -10.351,0.268 -0.84,0 -4.019,-0.088 -9.541,-0.268 -5.518,-0.181 -9.658,-0.269 -12.412,-0.269 -2.403,0 -3.604,0.596 -3.604,1.797 0,0.84 1.319,1.382 3.96,1.621 1.802,0.244 3.599,0.42 5.401,0.537 2.758,0.606 4.502,3.906 5.219,9.903 0.601,4.682 0.899,17.46 0.899,38.339" /></g><g
           transform="translate(2075.166,475.916)"
           id="g140"><path
             id="path142"
             style="fill:#404041;fill-opacity:1;fill-rule:nonzero;stroke:none"
             d="m 0,0 c -3.486,0 -6.24,1.201 -8.281,3.604 -1.685,2.036 -2.525,4.497 -2.525,7.377 0,2.642 0.84,5.044 2.525,7.203 2.158,2.519 4.98,3.779 8.457,3.779 3.125,0 5.732,-0.967 7.832,-2.881 2.099,-1.924 3.154,-4.443 3.154,-7.559 C 11.162,8.281 10.137,5.547 8.096,3.33 6.055,1.113 3.354,0 0,0" /></g><g
           transform="translate(2140.6836,559.2559)"
           id="g144"><path
             id="path146"
             style="fill:#404041;fill-opacity:1;fill-rule:nonzero;stroke:none"
             d="m 0,0 v -7.92 h 0.898 c 10.801,11.162 23.34,24.365 37.627,39.6 5.992,7.08 8.995,11.582 8.995,13.506 0,2.036 -0.806,3.232 -2.432,3.593 -1.616,0.362 -2.427,0.962 -2.427,1.802 0,1.079 0.962,1.621 2.876,1.621 1.201,0 4.175,-0.093 8.911,-0.268 4.737,-0.181 7.954,-0.274 9.634,-0.274 1.914,0 5.459,0.093 10.615,0.274 5.161,0.175 8.643,0.268 10.44,0.268 2.041,0 3.061,-0.542 3.061,-1.621 0,-1.079 -0.893,-1.616 -2.7,-1.616 -3.477,0 -6.958,-0.664 -10.439,-1.983 C 68.94,44.702 62.461,40.205 55.615,33.481 37.861,16.201 24.902,3.242 16.743,-5.4 c 2.998,-3.955 11.04,-13.018 24.116,-27.178 12.608,-13.682 20.821,-22.319 24.663,-25.918 5.757,-5.523 9.834,-9.243 12.232,-11.162 4.687,-3.843 9.248,-6.631 13.686,-8.369 4.439,-1.739 8.096,-2.608 10.982,-2.608 1.553,0 2.334,-0.483 2.334,-1.445 0,-1.201 -1.431,-1.797 -4.317,-1.797 H 84.78 c -5.757,0 -9.897,0.117 -12.417,0.361 -4.443,0.362 -8.408,1.553 -11.884,3.594 -2.515,1.445 -6.006,4.146 -10.44,8.106 -3.599,3.115 -12.002,12.295 -25.2,27.539 -12.236,14.16 -19.556,22.92 -21.958,26.279 l -1.983,2.7 H 0 V -31.68 c 0,-20.517 0.186,-33.359 0.537,-38.515 0.361,-5.879 2.52,-9.121 6.484,-9.727 3.121,-0.478 6.055,-0.713 8.819,-0.713 1.562,0 2.344,-0.483 2.344,-1.445 0,-1.201 -1.143,-1.797 -3.428,-1.797 -3.838,0 -8.848,0.088 -15.029,0.269 -6.182,0.18 -9.805,0.268 -10.889,0.268 -1.079,0 -4.473,-0.088 -10.166,-0.268 -5.703,-0.181 -9.873,-0.269 -12.51,-0.269 -2.402,0 -3.603,0.596 -3.603,1.797 0,0.84 1.318,1.382 3.964,1.621 1.797,0.244 3.594,0.42 5.401,0.537 2.754,0.606 4.497,3.906 5.215,9.902 0.6,4.683 0.898,17.461 0.898,38.34 V 0 c 0,21.484 -0.117,34.204 -0.351,38.164 -0.362,5.757 -2.95,9.18 -7.745,10.254 -1.679,0.361 -4.023,0.547 -7.021,0.547 -2.041,0 -3.062,0.537 -3.062,1.616 0,1.079 1.324,1.621 3.96,1.621 3.604,0 8.462,-0.093 14.58,-0.268 6.123,-0.181 9.659,-0.274 10.625,-0.274 1.319,0 4.737,0.093 10.254,0.274 5.523,0.175 9.366,0.268 11.524,0.268 2.524,0 3.779,-0.542 3.779,-1.621 0,-1.079 -0.84,-1.616 -2.519,-1.616 -4.205,0 -7.139,-0.723 -8.819,-2.163 C 1.553,45.361 0.596,42.573 0.361,38.433 0.117,34.292 0,21.484 0,0" /></g><g
           transform="translate(2251.748,475.916)"
           id="g148"><path
             id="path150"
             style="fill:#404041;fill-opacity:1;fill-rule:nonzero;stroke:none"
             d="m 0,0 c -3.477,0 -6.24,1.201 -8.276,3.604 -1.69,2.036 -2.525,4.497 -2.525,7.377 0,2.642 0.835,5.044 2.525,7.203 2.153,2.519 4.975,3.779 8.452,3.779 3.12,0 5.732,-0.967 7.832,-2.881 2.099,-1.924 3.154,-4.443 3.154,-7.559 C 11.162,8.281 10.137,5.547 8.096,3.33 6.055,1.113 3.359,0 0,0" /></g><g
           transform="translate(2042.7393,522.7812)"
           id="g152"><path
             id="path154"
             style="fill:#404041;fill-opacity:1;fill-rule:nonzero;stroke:none"
             d="m 0,0 c 0,9.434 -0.513,15.908 -1.538,19.424 -1.025,3.515 -2.622,6.181 -4.79,7.998 -1.231,1.055 -2.871,1.582 -4.922,1.582 -3.047,0 -5.537,-1.494 -7.471,-4.483 -3.457,-5.214 -5.185,-12.363 -5.185,-21.445 V 0 Z m 21.621,-5.889 h -45.088 c 0.528,-10.898 3.428,-19.511 8.701,-25.84 4.043,-4.863 8.907,-7.294 14.59,-7.294 3.516,0 6.709,0.976 9.58,2.939 2.871,1.963 5.948,5.498 9.229,10.596 l 2.988,-1.934 c -4.453,-9.082 -9.375,-15.517 -14.766,-19.297 -5.39,-3.779 -11.63,-5.664 -18.72,-5.664 -12.188,0 -21.416,4.688 -27.686,14.063 -5.039,7.558 -7.558,16.933 -7.558,28.125 0,13.711 3.706,24.619 11.118,32.734 7.412,8.115 16.098,12.178 26.059,12.178 8.321,0 15.542,-3.418 21.665,-10.244 6.123,-6.827 9.419,-16.944 9.888,-30.362" /></g><g
           transform="translate(1662.5195,1234.9688)"
           id="g156"><path
             id="path158"
             style="fill:#ffffff;fill-opacity:1;fill-rule:nonzero;stroke:none"
             d="m 0,0 c 0,-227.817 -184.683,-412.5 -412.5,-412.5 -227.817,0 -412.5,184.683 -412.5,412.5 0,227.82 184.683,412.5 412.5,412.5 C -184.683,412.5 0,227.82 0,0" /></g></g></g><g
       id="g160"><g
         id="g162"><g
           id="g168"><g
             id="g170"><path
               id="path180"
               style="fill:url(#radialGradient178);stroke:none"
               d="m 841.931,1295.408 c -21.494,-144.976 35.318,-283.417 138.521,-372.686 v 0 c 2.507,0.887 10.917,3.929 23.764,9.269 v 0 413.818 l 97.109,-35.394 V 980.058 c 6.013,3.446 12.15,7.056 18.389,10.831 v 0 440.022 l 97.109,-35.395 v -336.168 c 6.149,5.052 12.285,10.253 18.389,15.61 v 0 434.976 l 97.112,-35.393 v -293.718 c 76.676,106.406 123.047,249.113 77.803,434.324 v 0 c -31.231,13.129 -64.6,22.607 -99.659,27.805 v 0 c -20.494,3.038 -40.895,4.513 -61.011,4.515 v 0 c -201.078,0.018 -377.156,-147.197 -407.526,-352.059" /></g></g></g></g><g
       id="g182"><g
         clip-path="url(#clipPath188)"
         id="g184"><g
           transform="translate(1004.2163,1345.8086)"
           id="g190"><path
             id="path192"
             style="fill:#ffffff;fill-opacity:1;fill-rule:nonzero;stroke:none"
             d="m 0,0 v -413.817 c 21.887,9.099 56.66,24.878 97.109,48.066 v 330.358 z" /></g><g
           transform="translate(1119.7144,1430.9111)"
           id="g194"><path
             id="path196"
             style="fill:#ffffff;fill-opacity:1;fill-rule:nonzero;stroke:none"
             d="m 0,0 v -440.021 c 30.839,18.665 64.163,41.389 97.109,68.458 v 336.167 z" /></g><g
           transform="translate(1332.3242,1180.8223)"
           id="g198"><path
             id="path200"
             style="fill:#ffffff;fill-opacity:1;fill-rule:nonzero;stroke:none"
             d="m 0,0 v 293.719 l -97.112,35.393 V -105.864 C -62.608,-75.587 -29.119,-40.411 0,0" /></g></g></g><g
       id="g202"><g
         id="g204"><g
           id="g210"><g
             id="g212"><path
               id="path222"
               style="fill:url(#radialGradient220);stroke:none"
               d="m 980.545,922.639 c 57.206,-49.447 128.593,-83.852 208.926,-95.766 v 0 c 225.353,-33.408 435.129,122.192 468.537,347.544 v 0 c 23.496,158.484 -46.563,309.163 -168.545,396.311 v 0 c 32.226,-174.441 26.308,-529.465 -508.918,-648.089" /></g></g></g></g><g
       id="g224"><g
         clip-path="url(#clipPath230)"
         id="g226"><g
           transform="translate(980.5444,922.6396)"
           id="g232"><path
             id="path234"
             style="fill:#26a9e0;fill-opacity:1;fill-rule:nonzero;stroke:none"
             d="m 0,0 c 0,0 3.411,0.933 9.717,2.959 6.333,1.934 15.486,5.2 27.146,9.229 11.589,4.257 25.652,9.433 41.448,16.186 15.854,6.582 33.427,14.727 52.421,23.882 9.39,4.8 19.288,9.556 29.195,15.127 4.985,2.71 10.053,5.473 15.205,8.271 5.068,2.945 10.21,5.928 15.425,8.955 5.258,2.954 10.434,6.202 15.649,9.522 5.225,3.306 10.513,6.645 15.859,10.024 5.225,3.56 10.503,7.158 15.831,10.791 2.67,1.812 5.351,3.628 8.041,5.454 2.613,1.939 5.24,3.882 7.876,5.83 5.274,3.902 10.591,7.832 15.948,11.797 5.163,4.195 10.368,8.423 15.603,12.681 l 7.871,6.396 7.598,6.792 c 5.087,4.524 10.205,9.073 15.341,13.638 19.737,19.082 39.405,38.982 56.338,61.123 9.043,10.62 16.797,22.19 24.785,33.523 4.17,5.554 7.53,11.612 11.133,17.493 3.555,5.908 7.11,11.797 10.645,17.663 3.095,6.106 6.181,12.19 9.248,18.24 3.017,6.074 6.474,11.919 8.857,18.203 2.617,6.187 5.215,12.337 7.793,18.44 1.279,3.057 2.559,6.104 3.828,9.138 1.045,3.123 2.071,6.233 3.106,9.329 3.984,12.429 8.623,24.456 11.289,36.772 2.89,12.239 6.65,24.041 8.193,35.967 1.006,5.923 1.992,11.763 2.969,17.515 0.967,5.757 2.051,11.414 2.412,17.065 1.055,11.277 2.09,22.173 3.076,32.632 0.547,10.493 0.391,20.586 0.703,30.183 0.127,4.805 0.235,9.485 0.352,14.036 0.019,4.551 -0.391,8.957 -0.547,13.24 -0.439,8.569 -0.84,16.587 -1.221,24.004 -0.195,3.713 -0.381,7.275 -0.556,10.678 -0.42,3.379 -0.821,6.602 -1.202,9.661 -1.562,12.234 -2.539,21.902 -3.32,28.484 -0.742,6.592 -1.142,10.107 -1.142,10.107 0,0 0.673,-3.467 1.943,-9.966 1.24,-6.508 3.213,-16.04 5.42,-28.242 0.557,-3.049 1.152,-6.264 1.777,-9.634 0.381,-3.403 0.781,-6.962 1.201,-10.673 0.83,-7.437 1.719,-15.481 2.676,-24.075 0.42,-4.304 1.094,-8.738 1.348,-13.328 0.156,-4.594 0.332,-9.323 0.498,-14.177 0.254,-9.714 0.742,-19.949 0.674,-30.623 -0.547,-10.676 -1.114,-21.799 -1.7,-33.31 -0.087,-5.786 -1.054,-11.58 -1.855,-17.485 -0.811,-5.909 -1.631,-11.905 -2.461,-17.986 -1.221,-12.254 -4.668,-24.441 -7.256,-37.093 -2.285,-12.751 -6.953,-25.151 -10.771,-38.024 -1.006,-3.206 -2.012,-6.426 -3.018,-9.659 -1.25,-3.147 -2.5,-6.303 -3.76,-9.475 -2.539,-6.335 -5.097,-12.717 -7.666,-19.138 -2.353,-6.523 -5.781,-12.607 -8.779,-18.928 -3.125,-6.257 -6.269,-12.549 -9.424,-18.862 -3.603,-6.07 -7.217,-12.164 -10.849,-18.274 -3.672,-6.084 -7.11,-12.349 -11.358,-18.099 -8.154,-11.721 -16.064,-23.701 -25.322,-34.665 -17.578,-22.673 -37.881,-42.981 -58.223,-62.4 -5.293,-4.634 -10.566,-9.253 -15.81,-13.843 l -7.91,-6.797 -8.164,-6.391 c -5.42,-4.243 -10.821,-8.462 -16.172,-12.647 -5.535,-3.935 -11.028,-7.846 -16.477,-11.723 -2.725,-1.934 -5.435,-3.867 -8.135,-5.786 -2.774,-1.807 -5.537,-3.609 -8.286,-5.401 -5.518,-3.555 -10.977,-7.075 -16.382,-10.556 -5.537,-3.267 -11.011,-6.495 -16.421,-9.683 -5.396,-3.208 -10.747,-6.338 -16.167,-9.17 C 174.736,62.974 153.789,53.159 134.346,44.478 114.829,35.942 96.646,28.833 80.308,23.188 64.043,17.354 49.619,12.998 37.759,9.424 25.852,5.981 16.394,3.667 9.932,2.178 3.474,0.659 0,0 0,0" /></g><g
           transform="translate(1004.2139,932)"
           id="g236"><path
             id="path238"
             style="fill:#1372af;fill-opacity:1;fill-rule:nonzero;stroke:none"
             d="m 0,0 5,2.212 v 406.597 l 92.109,-33.572 v 3.179 L 0,413.809 Z" /></g><g
           transform="translate(1119.7119,990.9453)"
           id="g240"><path
             id="path242"
             style="fill:#1372af;fill-opacity:1;fill-rule:nonzero;stroke:none"
             d="m 0,0 5,3.066 v 431.9 l 92.109,-33.574 v 3.178 L 0,439.966 Z" /></g><g
           transform="translate(1332.3242,1471.3628)"
           id="g244"><path
             id="path246"
             style="fill:#1372af;fill-opacity:1;fill-rule:nonzero;stroke:none"
             d="m 0,0 v 3.179 l -97.114,35.393 v -434.883 l 5,4.482 V 33.572 Z" /></g><g
           id="g248"><g
             id="g250" /><g
             id="g280"><g
               style="opacity:0.39999402"
               id="g278"
               clip-path="url(#clipPath254)"><g
                 id="g276"><g
                   id="g274"><g
                     id="g272"><g
                       id="g270"><path
                         id="path268"
                         style="fill:url(#radialGradient266);stroke:none"
                         d="m 1521.152,770.193 c 0,-12.797 -121.406,-23.173 -271.179,-23.173 -149.773,0 -271.186,10.376 -271.186,23.173 0,12.798 121.413,23.174 271.186,23.174 149.773,0 271.179,-10.376 271.179,-23.174" /></g></g></g></g></g></g></g></g></g></g></svg>