<?xml version="1.0" encoding="UTF-8" standalone="no"?>
<svg
   xmlns:dc="http://purl.org/dc/elements/1.1/"
   xmlns:cc="http://creativecommons.org/ns#"
   xmlns:rdf="http://www.w3.org/1999/02/22-rdf-syntax-ns#"
   xmlns:svg="http://www.w3.org/2000/svg"
   xmlns="http://www.w3.org/2000/svg"
   viewBox="0 0 3866.6667 1200"
   height="70"
   width="225"
   xml:space="preserve"
   id="svg2"
   version="1.1"><metadata
     id="metadata8"><rdf:RDF><cc:Work
         rdf:about=""><dc:format>image/svg+xml</dc:format><dc:type
           rdf:resource="http://purl.org/dc/dcmitype/StillImage" /></cc:Work></rdf:RDF></metadata><defs
     id="defs6"><clipPath
       id="clipPath18"
       clipPathUnits="userSpaceOnUse"><path
         id="path16"
         d="M 0,900 H 2900 V 0 H 0 Z" /></clipPath><radialGradient
       id="radialGradient182"
       spreadMethod="pad"
       gradientTransform="matrix(194.76605,-66.545494,-66.545494,-194.76605,438.71191,466.28906)"
       gradientUnits="userSpaceOnUse"
       r="1"
       cy="0"
       cx="0"
       fy="0"
       fx="0"><stop
         id="stop176"
         offset="0"
         style="stop-opacity:1;stop-color:#00a3ff" /><stop
         id="stop178"
         offset="0.66051405"
         style="stop-opacity:1;stop-color:#00a3ff" /><stop
         id="stop180"
         offset="1"
         style="stop-opacity:1;stop-color:#144aa6" /></radialGradient><clipPath
       id="clipPath192"
       clipPathUnits="userSpaceOnUse"><path
         id="path190"
         d="M 0,900 H 2900 V 0 H 0 Z" /></clipPath><radialGradient
       id="radialGradient224"
       spreadMethod="pad"
       gradientTransform="matrix(178.98596,0,0,-178.98596,477.20703,447.46094)"
       gradientUnits="userSpaceOnUse"
       r="1"
       cy="0"
       cx="0"
       fy="0"
       fx="0"><stop
         id="stop218"
         offset="0"
         style="stop-opacity:1;stop-color:#e71e2d" /><stop
         id="stop220"
         offset="0.67970995"
         style="stop-opacity:1;stop-color:#e71e2d" /><stop
         id="stop222"
         offset="1"
         style="stop-opacity:1;stop-color:#401f20" /></radialGradient><clipPath
       id="clipPath234"
       clipPathUnits="userSpaceOnUse"><path
         id="path232"
         d="M 0,900 H 2900 V 0 H 0 Z" /></clipPath><clipPath
       id="clipPath258"
       clipPathUnits="userSpaceOnUse"><path
         id="path256"
         d="M 305.833,245.873 H 577.018 V 222.699 H 305.833 Z" /></clipPath><radialGradient
       id="radialGradient270"
       spreadMethod="pad"
       gradientTransform="matrix(124.29229,0,0,-16.475836,441.42529,234.28613)"
       gradientUnits="userSpaceOnUse"
       r="1"
       cy="0"
       cx="0"
       fy="0"
       fx="0"><stop
         id="stop264"
         offset="0"
         style="stop-opacity:1;stop-color:#6d6e70" /><stop
         id="stop266"
         offset="0.69366888"
         style="stop-opacity:1;stop-color:#ffffff" /><stop
         id="stop268"
         offset="1"
         style="stop-opacity:1;stop-color:#ffffff" /></radialGradient></defs><g
     transform="matrix(1.3333333,0,0,-1.3333333,0,1200)"
     id="g10"><g
       id="g12"><g
         clip-path="url(#clipPath18)"
         id="g14"><g
           transform="translate(758.2822,352.3379)"
           id="g20"><path
             id="path22"
             style="fill:#58595b;fill-opacity:1;fill-rule:nonzero;stroke:none"
             d="m 0,0 c 0,13.203 0,15.605 -0.2,18.306 -0.2,2.9 -0.698,4.301 -3.599,4.702 -0.698,0.097 -2.202,0.195 -3.003,0.195 -0.298,0 -0.698,0.401 -0.698,0.703 0,0.498 0.4,0.703 1.401,0.703 3.999,0 9.502,-0.205 10,-0.205 1.7,0 20.806,-0.097 22.808,0 1.699,0.103 3.198,0.103 3.999,0.401 0.498,0.102 0.898,0.503 1.201,0.503 0.401,0 0.601,-0.401 0.601,-0.801 0,-0.601 -0.401,-1.597 -0.703,-3.999 -0.098,-0.801 -0.201,-4.6 -0.401,-5.606 -0.097,-0.4 -0.4,-0.898 -0.796,-0.898 -0.4,0 -0.703,0.4 -0.703,1.001 0,0.698 -0.298,2.099 -0.801,3.198 -0.498,1.104 -2.597,2.5 -6.001,2.5 L 8.701,20.908 c -0.498,0 -0.698,-0.205 -0.698,-0.903 V -3.198 c 0,-0.503 0,-0.801 0.601,-0.801 l 12.001,0.103 c 1.499,0 2.803,0 3.999,0.097 2.105,0.2 3.301,0.498 4.102,1.499 0.4,0.503 0.801,0.904 1.104,0.904 0.4,0 0.498,-0.303 0.498,-0.704 0,-0.498 -0.601,-1.899 -0.801,-4.697 -0.2,-1.704 -0.298,-5.107 -0.298,-5.703 0,-0.801 -0.2,-1.699 -0.801,-1.699 -0.503,0 -0.6,0.4 -0.6,0.801 -0.103,0.898 -0.201,2.099 -0.601,3.095 -0.4,1.201 -1.802,2.305 -4.502,2.705 -2.197,0.298 -12.602,0.196 -14.101,0.196 -0.499,0 -0.601,-0.196 -0.601,-0.801 V -15 c 0,-8.403 0,-15.107 0.4,-18.408 0.298,-2.5 0.801,-4.102 3.203,-4.497 1.299,-0.2 3.199,-0.401 3.999,-0.401 0.499,0 0.699,-0.4 0.699,-0.698 0,-0.4 -0.401,-0.703 -1.402,-0.703 -4.897,0 -10.6,0.303 -11.001,0.303 -0.498,0 -6.001,-0.303 -8.701,-0.303 -0.898,0 -1.401,0.2 -1.401,0.703 0,0.298 0.2,0.698 0.703,0.698 0.801,0 1.899,0.298 2.7,0.401 1.699,0.298 1.9,1.997 2.3,4.497 C 0,-29.902 0,-23.203 0,-15 Z" /></g><g
           transform="translate(862.2861,337.3379)"
           id="g24"><path
             id="path26"
             style="fill:#58595b;fill-opacity:1;fill-rule:nonzero;stroke:none"
             d="m 0,0 c 0,-8.203 0,-14.902 0.4,-18.408 0.298,-2.5 0.596,-4.102 3.199,-4.497 1.298,-0.2 3.203,-0.401 3.999,-0.401 0.503,0 0.703,-0.4 0.703,-0.698 0,-0.4 -0.401,-0.703 -1.402,-0.703 -4.902,0 -10.6,0.303 -11.001,0.303 -0.502,0 -6.001,-0.303 -8.701,-0.303 -0.903,0 -1.401,0.2 -1.401,0.703 0,0.298 0.2,0.698 0.698,0.698 0.801,0 1.9,0.201 2.7,0.401 1.7,0.395 2.002,1.997 2.3,4.497 0.401,3.506 0.503,10.205 0.503,18.408 v 15 c 0,13.203 0,15.605 -0.2,18.306 -0.2,2.9 -0.903,4.204 -2.803,4.604 -1.001,0.195 -2.099,0.293 -2.7,0.293 -0.4,0 -0.698,0.401 -0.698,0.703 0,0.498 0.4,0.703 1.401,0.703 2.9,0 8.399,-0.205 8.901,-0.205 0.401,0 6.099,0.205 8.799,0.205 1.001,0 1.402,-0.205 1.402,-0.703 0,-0.302 -0.401,-0.703 -0.699,-0.703 -0.6,0 -1.201,0 -2.202,-0.195 C 0.796,37.51 0.298,36.309 0.098,33.306 0,30.605 0,28.203 0,15 Z" /></g><g
           transform="translate(937.3838,324.2324)"
           id="g28"><path
             id="path30"
             style="fill:#58595b;fill-opacity:1;fill-rule:nonzero;stroke:none"
             d="M 0,0 C 0.2,-7.002 1.001,-9.102 3.403,-9.702 5,-10.098 7.002,-10.2 7.803,-10.2 c 0.4,0 0.698,-0.298 0.698,-0.698 0,-0.503 -0.596,-0.704 -1.597,-0.704 -5.005,0 -8.506,0.303 -9.301,0.303 -0.801,0 -4.502,-0.303 -8.506,-0.303 -0.899,0 -1.397,0.098 -1.397,0.704 0,0.4 0.298,0.698 0.698,0.698 0.699,0 2.3,0.102 3.599,0.498 2.202,0.6 2.505,2.905 2.505,10.6 v 48.711 c 0,3.404 0.498,4.307 1.196,4.307 1.001,0 2.505,-1.704 3.404,-2.607 1.401,-1.397 14.204,-15 27.807,-29.004 C 35.61,13.301 45.01,3.203 47.71,0.4 l -0.898,42.608 c -0.103,5.503 -0.601,7.402 -3.301,7.905 -1.602,0.298 -3.599,0.396 -4.302,0.396 -0.601,0 -0.698,0.503 -0.698,0.8 0,0.503 0.698,0.606 1.699,0.606 3.999,0 8.203,-0.205 9.204,-0.205 0.996,0 3.897,0.205 7.5,0.205 0.899,0 1.602,-0.103 1.602,-0.606 0,-0.297 -0.401,-0.8 -1.001,-0.8 -0.401,0 -1.104,0 -2.1,-0.196 -2.9,-0.6 -3.101,-2.304 -3.101,-7.402 l -0.2,-49.815 c 0,-5.595 -0.102,-6.098 -0.703,-6.098 -0.898,0 -1.802,0.698 -6.699,5.2 C 43.809,-6.201 31.108,6.304 21.807,16.006 11.602,26.709 1.699,37.109 -1.001,40.107 Z" /></g><g
           transform="translate(1082.6865,339.8379)"
           id="g32"><path
             id="path34"
             style="fill:#58595b;fill-opacity:1;fill-rule:nonzero;stroke:none"
             d="m 0,0 c 0.4,0 0.4,0.2 0.303,0.596 l -8.701,23.31 c -0.503,1.299 -1.001,1.299 -1.504,0 L -18.101,0.596 C -18.203,0.2 -18.101,0 -17.803,0 Z m -9.8,35.41 c 1.099,2.798 1.499,3.296 2.1,3.296 0.898,0 1.201,-1.196 2.099,-3.101 1.602,-3.598 15.704,-38.706 21.104,-51.611 3.203,-7.598 5.601,-8.701 7.5,-9.302 1.304,-0.395 2.602,-0.498 3.501,-0.498 0.503,0 1.103,-0.2 1.103,-0.698 0,-0.503 -1.001,-0.703 -2.002,-0.703 -1.298,0 -7.802,0 -13.901,0.2 -1.704,0.103 -3.1,0.103 -3.1,0.601 0,0.4 0.2,0.4 0.6,0.6 0.498,0.201 1.397,0.899 0.796,2.3 L 2.1,-4.004 c -0.201,0.4 -0.298,0.503 -0.801,0.503 h -20.303 c -0.4,0 -0.698,-0.2 -0.898,-0.698 l -5,-13.604 c -0.801,-2.099 -1.304,-4.204 -1.304,-5.703 0,-1.699 1.504,-2.3 3.003,-2.3 h 0.801 c 0.698,0 0.898,-0.298 0.898,-0.698 0,-0.503 -0.498,-0.703 -1.299,-0.703 -2.099,0 -6.904,0.303 -7.905,0.303 -0.898,0 -5.298,-0.303 -8.901,-0.303 -1.099,0 -1.7,0.2 -1.7,0.703 0,0.4 0.401,0.698 0.801,0.698 0.601,0 1.9,0.103 2.603,0.201 3.999,0.498 5.698,3.501 7.397,7.802 z" /></g><g
           transform="translate(1168.082,324.2324)"
           id="g36"><path
             id="path38"
             style="fill:#58595b;fill-opacity:1;fill-rule:nonzero;stroke:none"
             d="M 0,0 C 0.2,-7.002 1.001,-9.102 3.398,-9.702 5,-10.098 7.002,-10.2 7.803,-10.2 c 0.4,0 0.698,-0.298 0.698,-0.698 0,-0.503 -0.601,-0.704 -1.602,-0.704 -5,0 -8.501,0.303 -9.301,0.303 -0.801,0 -4.497,-0.303 -8.501,-0.303 -0.899,0 -1.402,0.098 -1.402,0.704 0,0.4 0.303,0.698 0.703,0.698 0.699,0 2.3,0.102 3.599,0.498 2.202,0.6 2.5,2.905 2.5,10.6 v 48.711 c 0,3.404 0.503,4.307 1.201,4.307 1.001,0 2.5,-1.704 3.404,-2.607 1.396,-1.397 14.199,-15 27.802,-29.004 C 35.605,13.301 45.01,3.203 47.71,0.4 l -0.898,42.608 c -0.103,5.503 -0.601,7.402 -3.301,7.905 -1.602,0.298 -3.604,0.396 -4.302,0.396 -0.601,0 -0.703,0.503 -0.703,0.8 0,0.503 0.703,0.606 1.704,0.606 3.999,0 8.198,-0.205 9.199,-0.205 1.001,0 3.902,0.205 7.505,0.205 0.899,0 1.597,-0.103 1.597,-0.606 0,-0.297 -0.401,-0.8 -0.996,-0.8 -0.401,0 -1.104,0 -2.105,-0.196 -2.9,-0.6 -3.1,-2.304 -3.1,-7.402 L 52.109,-6.104 c 0,-5.595 -0.097,-6.098 -0.698,-6.098 -0.898,0 -1.802,0.698 -6.699,5.2 C 43.809,-6.201 31.108,6.304 21.807,16.006 11.602,26.709 1.699,37.109 -1.001,40.107 Z" /></g><g
           transform="translate(1289.4785,320.6338)"
           id="g40"><path
             id="path42"
             style="fill:#58595b;fill-opacity:1;fill-rule:nonzero;stroke:none"
             d="m 0,0 c -8.599,7.397 -10.698,17.104 -10.698,25.205 0,5.698 2.099,15.601 9.902,23.203 5.298,5.103 13.301,9.107 26.802,9.107 3.501,0 8.506,-0.303 12.803,-1.006 3.3,-0.596 6.103,-1.201 9.004,-1.299 0.898,0 1.098,-0.4 1.098,-0.898 0,-0.704 -0.2,-1.7 -0.4,-4.805 -0.098,-2.798 -0.098,-7.5 -0.2,-8.701 -0.098,-1.299 -0.498,-1.797 -0.997,-1.797 -0.6,0 -0.703,0.595 -0.703,1.797 0,3.3 -1.401,6.704 -3.701,8.506 -3.1,2.597 -9.502,4.697 -17.305,4.697 C 14.307,54.009 8.906,51.011 5.806,48.11 -0.698,42.104 -2.1,34.507 -2.1,25.903 -2.1,9.604 10.806,-4.902 29.609,-4.902 c 6.602,0 11.001,0.503 14.502,3.999 1.9,1.904 3.101,5.503 3.404,7.104 0.2,0.899 0.298,1.196 0.898,1.196 0.4,0 0.801,-0.595 0.801,-1.196 0,-0.6 -1.201,-8.003 -2.1,-10.903 -0.503,-1.602 -0.703,-1.9 -2.202,-2.5 C 41.313,-8.604 34.712,-9.106 29.009,-9.106 15.806,-9.106 6.904,-6.001 0,0" /></g><g
           transform="translate(1410.084,337.3379)"
           id="g44"><path
             id="path46"
             style="fill:#58595b;fill-opacity:1;fill-rule:nonzero;stroke:none"
             d="m 0,0 c 0,-8.203 0,-14.902 0.4,-18.408 0.298,-2.5 0.601,-4.102 3.199,-4.497 1.303,-0.2 3.203,-0.401 4.004,-0.401 0.498,0 0.698,-0.4 0.698,-0.698 0,-0.4 -0.401,-0.703 -1.402,-0.703 -4.897,0 -10.6,0.303 -11.001,0.303 -0.498,0 -6.001,-0.303 -8.701,-0.303 -0.903,0 -1.401,0.2 -1.401,0.703 0,0.298 0.2,0.698 0.698,0.698 0.801,0 1.904,0.201 2.705,0.401 1.699,0.395 1.997,1.997 2.3,4.497 0.4,3.506 0.498,10.205 0.498,18.408 v 15 c 0,13.203 0,15.605 -0.2,18.306 -0.2,2.9 -0.899,4.204 -2.798,4.604 -1.001,0.195 -2.104,0.293 -2.705,0.293 -0.396,0 -0.698,0.401 -0.698,0.703 0,0.498 0.4,0.703 1.401,0.703 2.9,0 8.403,-0.205 8.901,-0.205 0.401,0 6.104,0.205 8.804,0.205 0.996,0 1.397,-0.205 1.397,-0.703 0,-0.302 -0.401,-0.703 -0.699,-0.703 -0.6,0 -1.201,0 -2.202,-0.195 C 0.801,37.51 0.298,36.309 0.098,33.306 0,30.605 0,28.203 0,15 Z" /></g><g
           transform="translate(1506.6807,339.8379)"
           id="g48"><path
             id="path50"
             style="fill:#58595b;fill-opacity:1;fill-rule:nonzero;stroke:none"
             d="m 0,0 c 0.4,0 0.4,0.2 0.303,0.596 l -8.701,23.31 c -0.503,1.299 -1.001,1.299 -1.499,0 L -18.101,0.596 C -18.203,0.2 -18.101,0 -17.803,0 Z m -9.8,35.41 c 1.099,2.798 1.499,3.296 2.1,3.296 0.903,0 1.201,-1.196 2.099,-3.101 1.602,-3.598 15.704,-38.706 21.109,-51.611 3.198,-7.598 5.6,-8.701 7.5,-9.302 1.299,-0.395 2.597,-0.498 3.501,-0.498 0.498,0 1.098,-0.2 1.098,-0.698 0,-0.503 -1.001,-0.703 -2.002,-0.703 -1.298,0 -7.797,0 -13.901,0.2 -1.699,0.103 -3.1,0.103 -3.1,0.601 0,0.4 0.2,0.4 0.6,0.6 0.498,0.201 1.401,0.899 0.801,2.3 L 2.104,-4.004 c -0.2,0.4 -0.302,0.503 -0.8,0.503 h -20.308 c -0.4,0 -0.698,-0.2 -0.898,-0.698 l -5,-13.604 c -0.801,-2.099 -1.299,-4.204 -1.299,-5.703 0,-1.699 1.499,-2.3 2.998,-2.3 h 0.801 c 0.698,0 0.898,-0.298 0.898,-0.698 0,-0.503 -0.498,-0.703 -1.299,-0.703 -2.099,0 -6.899,0.303 -7.9,0.303 -0.903,0 -5.303,-0.303 -8.901,-0.303 -1.104,0 -1.705,0.2 -1.705,0.703 0,0.4 0.401,0.698 0.801,0.698 0.601,0 1.9,0.103 2.603,0.201 3.999,0.498 5.698,3.501 7.402,7.802 z" /></g><g
           transform="translate(1596.3828,337.1328)"
           id="g52"><path
             id="path54"
             style="fill:#58595b;fill-opacity:1;fill-rule:nonzero;stroke:none"
             d="m 0,0 c 0,-12.5 0.2,-17.598 1.802,-19.102 1.396,-1.396 4.8,-2.002 11.699,-2.002 4.604,0 8.501,0.103 10.605,2.603 1.099,1.304 1.797,3.101 2.1,4.8 0.098,0.605 0.4,1.103 0.898,1.103 0.401,0 0.601,-0.4 0.601,-1.298 0,-0.904 -0.601,-6.006 -1.299,-8.506 -0.6,-2.002 -0.903,-2.3 -5.6,-2.3 -6.304,0 -11.206,0.102 -15.308,0.298 -3.999,0.102 -6.997,0.205 -9.6,0.205 -0.4,0 -1.899,0 -3.598,-0.103 -1.802,-0.102 -3.701,-0.2 -5.103,-0.2 -0.903,0 -1.401,0.2 -1.401,0.703 0,0.298 0.2,0.698 0.698,0.698 0.801,0 1.904,0.201 2.705,0.401 1.699,0.395 1.9,1.997 2.3,4.497 0.498,3.506 0.498,10.205 0.498,18.408 v 15 c 0,13.203 0,15.606 -0.2,18.306 -0.2,2.9 -0.698,4.302 -3.599,4.702 -0.703,0.098 -2.202,0.195 -3.003,0.195 -0.298,0 -0.698,0.401 -0.698,0.703 0,0.498 0.4,0.703 1.401,0.703 3.999,0 9.502,-0.205 10,-0.205 0.401,0 7.002,0.205 9.703,0.205 0.898,0 1.401,-0.205 1.401,-0.703 0,-0.302 -0.4,-0.6 -0.703,-0.6 -0.601,0 -1.9,-0.103 -2.901,-0.2 -2.597,-0.498 -3.1,-1.797 -3.3,-4.8 C 0,30.811 0,28.408 0,15.205 Z" /></g><g
           transform="translate(1782.5791,339.8379)"
           id="g56"><path
             id="path58"
             style="fill:#58595b;fill-opacity:1;fill-rule:nonzero;stroke:none"
             d="m 0,0 c 0.4,0 0.4,0.2 0.303,0.596 l -8.701,23.31 c -0.503,1.299 -1.001,1.299 -1.499,0 L -18.101,0.596 C -18.203,0.2 -18.101,0 -17.803,0 Z m -9.8,35.41 c 1.099,2.798 1.499,3.296 2.1,3.296 0.903,0 1.201,-1.196 2.099,-3.101 1.602,-3.598 15.704,-38.706 21.109,-51.611 3.198,-7.598 5.6,-8.701 7.5,-9.302 1.299,-0.395 2.597,-0.498 3.501,-0.498 0.498,0 1.098,-0.2 1.098,-0.698 0,-0.503 -1.001,-0.703 -2.002,-0.703 -1.298,0 -7.797,0 -13.901,0.2 -1.699,0.103 -3.1,0.103 -3.1,0.601 0,0.4 0.2,0.4 0.6,0.6 0.498,0.201 1.401,0.899 0.801,2.3 L 2.104,-4.004 c -0.2,0.4 -0.302,0.503 -0.8,0.503 h -20.308 c -0.4,0 -0.698,-0.2 -0.898,-0.698 l -5,-13.604 c -0.801,-2.099 -1.299,-4.204 -1.299,-5.703 0,-1.699 1.499,-2.3 2.998,-2.3 h 0.801 c 0.698,0 0.898,-0.298 0.898,-0.698 0,-0.503 -0.498,-0.703 -1.299,-0.703 -2.099,0 -6.899,0.303 -7.9,0.303 -0.903,0 -5.303,-0.303 -8.901,-0.303 -1.104,0 -1.705,0.2 -1.705,0.703 0,0.4 0.401,0.698 0.801,0.698 0.601,0 1.9,0.103 2.603,0.201 3.999,0.498 5.698,3.501 7.402,7.802 z" /></g><g
           transform="translate(1872.2764,343.1387)"
           id="g60"><path
             id="path62"
             style="fill:#58595b;fill-opacity:1;fill-rule:nonzero;stroke:none"
             d="m 0,0 c 0,-9.004 0,-16.904 0.098,-18.506 0.102,-2.099 0.302,-5.2 1.001,-6.103 1.098,-1.597 4.199,-3.399 14.604,-3.399 8.101,0 15.303,2.7 20.606,7.705 4.599,4.297 6.899,12.403 6.899,20.205 0,10.801 -4.702,17.701 -8.301,21.299 -8.301,8.403 -18.003,9.502 -28.506,9.502 -1.699,0 -4.502,-0.298 -5.302,-0.596 C 0.298,29.805 0,29.404 0,28.408 Z m -8.003,9.199 c 0,13.203 0,15.606 -0.2,18.306 -0.2,2.9 -0.698,4.302 -3.599,4.702 -0.703,0.098 -2.202,0.195 -3.003,0.195 -0.298,0 -0.698,0.401 -0.698,0.703 0,0.499 0.4,0.704 1.401,0.704 3.999,0 9.703,-0.205 10.201,-0.205 1.001,0 6.601,0.205 11.801,0.205 8.804,0 24.908,0.8 35.308,-9.707 4.399,-4.4 8.604,-11.499 8.604,-21.602 0,-10.703 -4.605,-18.906 -9.502,-23.906 -3.804,-3.902 -11.705,-9.805 -26.709,-9.805 -3.799,0 -8.501,0.303 -12.3,0.503 -3.804,0.298 -6.802,0.503 -7.202,0.503 -0.201,0 -1.802,-0.103 -3.604,-0.103 -1.797,-0.102 -3.896,-0.2 -5.298,-0.2 -0.903,0 -1.401,0.2 -1.401,0.703 0,0.298 0.2,0.699 0.698,0.699 0.801,0 1.904,0.2 2.705,0.4 1.699,0.395 1.9,1.997 2.3,4.497 0.498,3.506 0.498,10.205 0.498,18.408 z" /></g><g
           transform="translate(2006.9834,323.7344)"
           id="g64"><path
             id="path66"
             style="fill:#58595b;fill-opacity:1;fill-rule:nonzero;stroke:none"
             d="m 0,0 c 5.098,11.401 16.602,40.41 18.501,46.509 0.4,1.304 0.801,2.5 0.801,3.198 0,0.703 -0.298,1.504 -1.201,1.807 -1.001,0.293 -1.997,0.293 -2.998,0.293 -0.503,0 -1.001,0.302 -1.001,0.703 0,0.498 0.6,0.703 2.002,0.703 3.5,0 7.5,-0.205 8.598,-0.205 0.503,0 4.302,0.205 6.904,0.205 0.899,0 1.397,-0.205 1.397,-0.606 0,-0.4 -0.298,-0.8 -0.996,-0.8 -0.601,0 -2.603,0 -4.204,-0.996 C 26.602,50.01 25.205,48.809 22.9,43.008 21.904,40.605 17.603,30.405 13.101,20 7.7,7.598 3.799,-1.602 1.797,-5.801 c -2.398,-5.102 -2.901,-6.406 -3.799,-6.406 -1.001,0 -1.602,1.103 -3.301,5.205 l -21.606,52.109 c -1.997,4.805 -3.198,5.704 -6.099,6.407 -1.401,0.293 -2.9,0.293 -3.403,0.293 -0.498,0 -0.698,0.503 -0.698,0.8 0,0.503 0.898,0.606 2.299,0.606 4.2,0 9.205,-0.205 10.303,-0.205 0.899,0 4.8,0.205 8.203,0.205 1.597,0 2.398,-0.205 2.398,-0.606 0,-0.4 -0.298,-0.8 -0.899,-0.8 -1.001,0 -2.402,-0.098 -3.203,-0.396 -0.898,-0.4 -0.996,-0.903 -0.996,-1.499 0,-1.103 1.099,-3.701 2.398,-7.104 z" /></g><g
           transform="translate(2103.4775,337.3379)"
           id="g68"><path
             id="path70"
             style="fill:#58595b;fill-opacity:1;fill-rule:nonzero;stroke:none"
             d="m 0,0 c 0,-8.203 0,-14.902 0.4,-18.408 0.298,-2.5 0.601,-4.102 3.199,-4.497 1.303,-0.2 3.203,-0.401 4.004,-0.401 0.498,0 0.698,-0.4 0.698,-0.698 0,-0.4 -0.401,-0.703 -1.402,-0.703 -4.897,0 -10.6,0.303 -11.001,0.303 -0.498,0 -6.001,-0.303 -8.701,-0.303 -0.903,0 -1.401,0.2 -1.401,0.703 0,0.298 0.2,0.698 0.698,0.698 0.801,0 1.904,0.201 2.705,0.401 1.699,0.395 1.997,1.997 2.3,4.497 0.4,3.506 0.498,10.205 0.498,18.408 v 15 c 0,13.203 0,15.605 -0.2,18.306 -0.2,2.9 -0.899,4.204 -2.798,4.604 -1.001,0.195 -2.104,0.293 -2.705,0.293 -0.396,0 -0.698,0.401 -0.698,0.703 0,0.498 0.4,0.703 1.401,0.703 2.9,0 8.403,-0.205 8.901,-0.205 0.401,0 6.104,0.205 8.804,0.205 0.996,0 1.397,-0.205 1.397,-0.703 0,-0.302 -0.401,-0.703 -0.699,-0.703 -0.6,0 -1.201,0 -2.202,-0.195 C 0.801,37.51 0.298,36.309 0.098,33.306 0,30.605 0,28.203 0,15 Z" /></g><g
           transform="translate(2169.4736,313.832)"
           id="g72"><path
             id="path74"
             style="fill:#58595b;fill-opacity:1;fill-rule:nonzero;stroke:none"
             d="m 0,0 c -1.201,0.601 -1.299,0.898 -1.299,3.203 0,4.199 0.401,7.598 0.498,8.999 0,0.903 0.2,1.402 0.703,1.402 0.498,0 0.801,-0.303 0.801,-1.001 0,-0.699 0,-1.9 0.298,-3.101 1.401,-6.201 8.003,-8.403 13.901,-8.403 8.706,0 13.203,4.902 13.203,11.303 0,6.104 -3.3,9.004 -11.098,14.805 l -4.004,2.998 C 3.501,37.305 0.4,42.51 0.4,48.408 c 0,10 7.901,16.006 19.507,16.006 3.501,0 7.002,-0.498 9.102,-1.001 1.699,-0.4 2.397,-0.4 3.1,-0.4 0.699,0 0.899,-0.103 0.899,-0.601 0,-0.4 -0.401,-3.203 -0.401,-9.004 0,-1.299 -0.097,-1.894 -0.698,-1.894 -0.6,0 -0.703,0.395 -0.801,1.093 -0.102,1.006 -0.8,3.301 -1.298,4.205 -0.601,1.001 -3.501,4.204 -11.407,4.204 -6.401,0 -11.699,-3.203 -11.699,-9.204 0,-5.406 2.7,-8.501 11.401,-14.405 l 2.5,-1.699 C 31.309,28.408 35.01,22.505 35.01,15.205 35.01,10.205 33.11,4.8 26.807,0.698 23.105,-1.699 17.603,-2.305 12.803,-2.305 8.701,-2.305 3.604,-1.699 0,0" /></g><g
           transform="translate(2298.6777,315.0332)"
           id="g76"><path
             id="path78"
             style="fill:#58595b;fill-opacity:1;fill-rule:nonzero;stroke:none"
             d="m 0,0 c 7.905,0 23.809,4.199 23.809,28.804 0,20.405 -12.403,31.108 -26.309,31.108 -14.702,0 -25.303,-9.204 -25.303,-27.705 C -27.803,12.402 -15.903,0 0,0 m -1.997,63.115 c 19.805,0 34.805,-12.109 34.805,-31.909 0,-19.004 -14.102,-34.712 -35.308,-34.712 -24.102,0 -34.404,18.106 -34.404,33.408 0,13.706 10.6,33.213 34.907,33.213" /></g><g
           transform="translate(2399.9766,345.1406)"
           id="g80"><path
             id="path82"
             style="fill:#58595b;fill-opacity:1;fill-rule:nonzero;stroke:none"
             d="m 0,0 c 0,-0.503 0.2,-0.801 0.601,-1.104 1.298,-0.698 5.8,-1.298 9.702,-1.298 2.099,0 4.502,0.097 6.601,1.499 2.998,2.002 5.298,6.499 5.298,13.003 0,10.605 -5.801,16.704 -15.2,16.704 -2.603,0 -5.4,-0.298 -6.304,-0.503 C 0.298,28.105 0,27.803 0,27.305 Z m -7.603,7.197 c 0,13.203 0,15.606 -0.2,18.306 -0.2,2.9 -0.698,4.302 -3.598,4.702 -0.703,0.098 -2.203,0.195 -3.003,0.195 -0.298,0 -0.699,0.401 -0.699,0.704 0,0.498 0.401,0.703 1.402,0.703 3.999,0 9.897,-0.205 10.4,-0.205 0.899,0 8.301,0.205 11.001,0.205 5.601,0 11.802,-0.503 16.406,-3.702 2.198,-1.601 6.099,-5.703 6.099,-11.601 0,-6.304 -2.598,-12.402 -10.801,-19.404 7.202,-9.004 13.301,-16.709 18.404,-22.007 4.702,-4.8 7.602,-5.601 9.799,-5.904 1.705,-0.297 2.603,-0.297 3.101,-0.297 0.503,0 0.801,-0.401 0.801,-0.699 0,-0.503 -0.498,-0.703 -2.1,-0.703 h -5.498 c -5.005,0 -7.202,0.498 -9.404,1.699 -3.799,2.002 -7.002,6.104 -12.002,12.505 -3.701,4.6 -7.603,10.103 -9.502,12.403 -0.4,0.4 -0.601,0.503 -1.201,0.503 L 0.601,-5.205 C 0.2,-5.205 0,-5.4 0,-5.903 v -2.002 c 0,-8.199 0,-14.8 0.4,-18.306 0.298,-2.5 0.801,-4.101 3.501,-4.497 1.202,-0.2 3.101,-0.4 3.902,-0.4 0.6,0 0.698,-0.401 0.698,-0.699 0,-0.4 -0.4,-0.703 -1.401,-0.703 -4.8,0 -10.401,0.303 -10.801,0.303 -0.103,0 -6.001,-0.303 -8.701,-0.303 -0.904,0 -1.402,0.2 -1.402,0.703 0,0.298 0.2,0.699 0.699,0.699 0.8,0 1.904,0.2 2.705,0.4 1.699,0.396 1.899,1.997 2.299,4.497 0.498,3.506 0.498,10.205 0.498,18.408 z" /></g><g
           transform="translate(828.0283,478.9297)"
           id="g84"><path
             id="path86"
             style="fill:#404041;fill-opacity:1;fill-rule:nonzero;stroke:none"
             d="m 0,0 c 0,14.932 -5.532,26.274 -16.587,34.033 -3.423,2.393 -8.154,3.76 -14.194,4.102 -2.163,0.112 -4.615,0.171 -7.349,0.171 -0.688,0 -1.03,-0.401 -1.03,-1.202 V -3.418 c 0,-5.928 0.342,-9.805 1.03,-11.626 0.679,-2.168 2.334,-3.765 4.951,-4.795 3.316,-1.362 7.471,-2.051 12.491,-2.051 5.126,0 9.516,1.426 13.164,4.278 C -2.505,-13.735 0,-7.866 0,0 M -39.16,89.951 V 47.71 c 0,-1.03 0.395,-1.65 1.201,-1.885 1.48,-0.342 4.16,-0.508 8.037,-0.508 5.581,0 9.688,1.079 12.31,3.247 4.673,3.877 7.011,9.917 7.011,18.13 0,6.602 -1.713,12.481 -5.131,17.608 -4.107,5.927 -9.517,8.896 -16.246,8.896 -3.872,0 -6.044,-0.234 -6.499,-0.688 -0.454,-0.454 -0.683,-1.309 -0.683,-2.559 M -59.678,20.518 v 30.097 c 0,20.41 -0.117,32.495 -0.342,36.255 -0.341,5.469 -2.797,8.721 -7.353,9.741 -1.597,0.342 -3.823,0.518 -6.67,0.518 -1.938,0 -2.905,0.513 -2.905,1.538 0,1.025 1.255,1.538 3.76,1.538 3.53,0 8.125,-0.088 13.764,-0.254 5.64,-0.171 8.809,-0.259 9.492,-0.259 2.964,0 6.753,0.088 11.372,0.259 4.62,0.166 7.779,0.254 9.493,0.254 13.676,0 23.593,-3.135 29.751,-9.399 4.443,-4.449 6.67,-9.864 6.67,-16.245 C 7.354,63.955 1.538,53.979 -10.088,44.629 -1.763,41.782 5.186,37.505 10.776,31.812 17.617,24.854 21.03,16.816 21.03,7.695 c 0,-10.029 -3.647,-18.525 -10.937,-25.478 -8.443,-7.862 -20.01,-11.802 -34.717,-11.802 -1.25,0 -5.239,0.171 -11.968,0.518 -6.728,0.341 -11.001,0.507 -12.832,0.507 -1.02,0 -4.243,-0.083 -9.658,-0.253 -5.415,-0.171 -9.375,-0.254 -11.88,-0.254 -2.285,0 -3.428,0.566 -3.428,1.704 0,0.801 1.255,1.313 3.77,1.543 1.704,0.229 3.413,0.395 5.132,0.508 2.612,0.576 4.272,3.71 4.951,9.409 0.576,4.448 0.859,16.587 0.859,36.421" /></g><g
           transform="translate(902.2422,529.5449)"
           id="g88"><path
             id="path90"
             style="fill:#404041;fill-opacity:1;fill-rule:nonzero;stroke:none"
             d="m 0,0 v -30.098 c 0,-12.881 0.171,-21.372 0.513,-25.473 0.449,-6.162 1.474,-9.917 3.076,-11.289 2.847,-2.505 9.746,-3.76 20.693,-3.76 10.371,0 17.036,1.597 20,4.785 2.51,2.739 3.989,6.157 4.448,10.264 0.23,1.704 0.86,2.563 1.88,2.563 0.913,0 1.372,-0.967 1.372,-2.905 0,-6.841 -0.854,-13.399 -2.568,-19.668 -0.684,-2.398 -2.051,-3.814 -4.101,-4.273 -0.796,-0.229 -3.023,-0.346 -6.67,-0.346 -9.122,0 -18.755,0.171 -28.897,0.517 -10.151,0.342 -17.1,0.508 -20.864,0.508 -1.021,0 -4.248,-0.083 -9.658,-0.254 -5.42,-0.171 -9.38,-0.254 -11.885,-0.254 -2.285,0 -3.423,0.567 -3.423,1.704 0,0.801 1.25,1.314 3.765,1.543 1.709,0.23 3.413,0.396 5.132,0.508 2.617,0.576 4.272,3.711 4.951,9.409 0.571,4.449 0.859,16.587 0.859,36.421 V 0 c 0,20.41 -0.117,32.495 -0.342,36.255 -0.229,4.214 -1.479,7.07 -3.764,8.55 -1.822,1.137 -4.903,1.709 -9.229,1.709 -1.938,0 -2.915,0.512 -2.915,1.538 0,1.025 1.26,1.538 3.77,1.538 2.959,0 7.29,-0.088 12.998,-0.254 5.693,-0.171 9.174,-0.259 10.424,-0.259 1.143,0 4.703,0.088 10.689,0.259 5.981,0.166 10.176,0.254 12.568,0.254 2.398,0 3.594,-0.513 3.594,-1.538 0,-1.026 -1.03,-1.538 -3.081,-1.538 -2.505,0 -4.731,-0.176 -6.67,-0.518 C 2.788,45.317 0.679,42.065 0.337,36.255 0.112,32.495 0,20.41 0,0" /></g><g
           transform="translate(1040.5771,513.2998)"
           id="g92"><path
             id="path94"
             style="fill:#404041;fill-opacity:1;fill-rule:nonzero;stroke:none"
             d="m 0,0 v -13.853 c 0,-19.262 0.288,-31.401 0.859,-36.42 0.694,-5.699 2.935,-8.833 6.734,-9.41 3.33,-0.454 6.211,-0.673 8.628,-0.673 1.958,0 2.929,-0.459 2.929,-1.377 0,-1.138 -1.254,-1.705 -3.759,-1.705 -4.107,0 -9.239,0.084 -15.391,0.254 -6.157,0.171 -9.692,0.254 -10.601,0.254 -1.259,0 -4.594,-0.083 -10,-0.254 -5.42,-0.17 -9.326,-0.254 -11.718,-0.254 -2.393,0 -3.589,0.567 -3.589,1.705 0,0.8 1.25,1.313 3.76,1.543 1.591,0.229 3.247,0.395 4.961,0.507 2.617,0.577 4.277,3.711 4.956,9.41 0.571,4.448 0.859,16.586 0.859,36.42 v 30.098 c 0,20.41 -0.122,32.495 -0.342,36.255 -0.347,5.469 -2.798,8.721 -7.358,9.741 -1.597,0.342 -3.824,0.518 -6.665,0.518 -1.944,0 -2.91,0.459 -2.91,1.367 0,1.138 1.308,1.709 3.935,1.709 3.301,0 7.891,-0.088 13.765,-0.254 5.869,-0.171 9.487,-0.259 10.854,-0.259 27.705,0 42.754,0.054 45.147,0.176 1.826,0 4.165,0.225 7.011,0.684 2.164,0.678 3.081,1.025 2.74,1.025 0.796,0 1.196,-0.518 1.196,-1.543 0,-0.342 -0.171,-1.196 -0.518,-2.563 -0.337,-1.714 -0.625,-3.418 -0.854,-5.132 -0.23,-3.872 -0.513,-8.491 -0.855,-13.848 -0.234,-1.601 -0.8,-2.397 -1.709,-2.397 -1.03,0 -1.596,0.903 -1.709,2.705 0,2.822 -0.351,4.961 -1.03,6.425 -1.489,3.272 -5.268,4.957 -11.333,5.069 L 1.543,56.436 C 0.513,56.436 0,55.635 0,54.058 V 11.621 c 0,-1.02 0.396,-1.528 1.201,-1.528 h 21.978 c 4.804,0 7.5,0.058 8.071,0.166 3.32,0.346 5.669,1.372 7.041,3.081 0.908,1.142 1.66,1.709 2.231,1.709 0.679,0 1.036,-0.513 1.036,-1.543 0,-0.225 -0.176,-1.48 -0.523,-3.755 -0.342,-2.627 -0.63,-4.907 -0.854,-6.841 -0.464,-4.678 -0.689,-8.838 -0.689,-12.485 0,-2.163 -0.571,-3.247 -1.719,-3.247 -0.688,0 -1.201,1.084 -1.543,3.247 -0.346,1.479 -0.629,2.964 -0.864,4.443 -1.26,3.535 -4.175,5.586 -8.755,6.162 C 23.867,1.372 15.396,1.538 1.201,1.538 0.396,1.538 0,1.03 0,0" /></g><g
           transform="translate(1117.3496,499.4473)"
           id="g96"><path
             id="path98"
             style="fill:#404041;fill-opacity:1;fill-rule:nonzero;stroke:none"
             d="m 0,0 v 30.098 c 0,20.41 -0.112,32.495 -0.332,36.255 -0.347,5.468 -2.285,8.662 -5.82,9.575 -1.939,0.454 -3.907,0.683 -5.899,0.683 -1.997,0 -2.993,0.567 -2.993,1.709 0,0.909 1.367,1.368 4.106,1.368 2.276,0 6.177,-0.088 11.714,-0.254 5.528,-0.171 9.034,-0.259 10.513,-0.259 1.255,0 4.448,0.088 9.58,0.259 5.127,0.166 8.887,0.254 11.284,0.254 2.398,0 3.594,-0.459 3.594,-1.368 0,-1.142 -0.82,-1.709 -2.451,-1.709 -1.631,0 -3.408,-0.175 -5.322,-0.517 -3.833,-0.679 -5.923,-3.931 -6.255,-9.741 -0.23,-3.76 -0.342,-15.845 -0.342,-36.255 L 21.377,0 c 0,-20.405 0.229,-32.886 0.684,-37.441 0.444,-5.02 2.71,-7.813 6.777,-8.389 3.271,-0.454 6.157,-0.674 8.638,-0.674 1.811,0 2.714,-0.459 2.714,-1.377 0,-1.138 -1.084,-1.704 -3.247,-1.704 -4.331,0 -9.609,0.083 -15.82,0.254 -6.216,0.171 -9.834,0.254 -10.859,0.254 -1.026,0 -4.253,-0.083 -9.659,-0.254 -5.415,-0.171 -9.379,-0.254 -11.884,-0.254 -2.285,0 -3.418,0.566 -3.418,1.704 0,0.801 1.25,1.314 3.759,1.543 1.714,0.23 3.418,0.396 5.132,0.508 2.735,0.576 4.385,3.398 4.956,8.472 C -0.278,-32.29 0,-19.834 0,0" /></g><g
           transform="translate(1194.3076,544.9355)"
           id="g100"><path
             id="path102"
             style="fill:#404041;fill-opacity:1;fill-rule:nonzero;stroke:none"
             d="m 0,0 1.87,-71.821 c 0.347,-11.397 2.339,-17.725 5.991,-18.975 0.342,-0.122 2.564,-0.405 6.665,-0.854 3.423,-0.459 5.132,-1.031 5.132,-1.719 0,-1.138 -1.308,-1.704 -3.935,-1.704 -4.331,0 -8.833,0.083 -13.506,0.254 -4.678,0.171 -7.237,0.254 -7.691,0.254 0.108,0 -2.055,-0.083 -6.504,-0.254 -4.443,-0.171 -8.432,-0.254 -11.967,-0.254 -2.51,0 -3.765,0.566 -3.765,1.704 0,0.801 1.48,1.313 4.448,1.543 2.051,0.229 4.048,0.454 5.987,0.683 2.158,0.684 3.588,2.505 4.277,5.474 0.566,2.617 0.908,7.866 1.02,15.728 l 1.539,101.235 c 0.112,3.877 0.859,5.815 2.226,5.815 0.908,0 3.023,-1.772 6.328,-5.302 9.341,-10.035 27.017,-28.33 53.008,-54.888 11.626,-12.09 24.165,-25.088 37.622,-38.994 H 89.6 l -1.714,76.777 c -0.113,4.224 -0.337,7.129 -0.679,8.721 -0.923,3.428 -2.627,5.649 -5.132,6.675 -1.709,0.683 -4.731,1.025 -9.062,1.025 -1.831,0 -2.74,0.513 -2.74,1.538 0,1.026 1.485,1.538 4.444,1.538 3.423,0 7.524,-0.088 12.309,-0.254 4.795,-0.171 7.588,-0.258 8.384,-0.258 0.117,0 2.11,0.087 5.991,0.258 3.872,0.166 7.461,0.254 10.767,0.254 2.622,0 3.936,-0.512 3.936,-1.538 0,-1.025 -1.026,-1.538 -3.082,-1.538 -5.703,0 -9.174,-1.88 -10.424,-5.644 -0.577,-2.056 -0.913,-5.191 -1.031,-9.4 L 99.683,-91.826 c -0.113,-3.53 -0.855,-5.298 -2.217,-5.298 -1.255,0 -3.194,1.25 -5.816,3.755 -10.942,10.835 -27.758,27.593 -50.444,50.273 -7.754,7.637 -16.475,16.7 -26.167,27.193 C 10.137,-10.542 5.293,-5.244 0.508,0 Z" /></g><g
           transform="translate(1350.5967,503.041)"
           id="g104"><path
             id="path106"
             style="fill:#404041;fill-opacity:1;fill-rule:nonzero;stroke:none"
             d="m 0,0 h 31.465 c 0.791,0 1.079,0.342 0.854,1.025 L 16.924,43.262 c -0.225,1.025 -0.508,1.543 -0.85,1.543 -0.454,0 -0.801,-0.518 -1.03,-1.543 L -0.688,1.196 C -0.913,0.396 -0.688,0 0,0 m 34.712,-8.55 h -38.13 c -0.688,0 -1.196,-0.459 -1.543,-1.372 l -9.233,-24.453 c -1.714,-4.556 -2.564,-8.032 -2.564,-10.43 0,-3.53 2.28,-5.293 6.836,-5.293 h 2.568 c 1.709,0 2.564,-0.459 2.564,-1.377 0,-1.137 -0.967,-1.704 -2.905,-1.704 -1.822,0 -4.878,0.083 -9.151,0.254 -4.272,0.171 -7.26,0.254 -8.979,0.254 -9.917,-0.342 -16.641,-0.508 -20.176,-0.508 -2.163,0 -3.247,0.567 -3.247,1.704 0,0.918 0.679,1.377 2.051,1.377 1.826,0 3.589,0.108 5.302,0.342 3.643,0.449 6.607,2.051 8.892,4.78 1.816,2.168 3.701,5.704 5.64,10.601 l 42.92,107.393 c 1.826,4.555 3.422,6.84 4.795,6.84 1.25,0 2.675,-1.826 4.272,-5.473 10.483,-26.45 24.619,-61.499 42.402,-105.166 4.795,-11.284 9.805,-17.5 15.054,-18.643 2.051,-0.454 4.443,-0.674 7.183,-0.674 1.479,0 2.226,-0.459 2.226,-1.377 0,-0.678 -0.576,-1.137 -1.718,-1.362 -1.138,-0.229 -3.189,-0.342 -6.153,-0.342 -14.136,0 -24.907,0.113 -32.319,0.342 -3.418,0.112 -5.132,0.566 -5.132,1.362 0,0.918 0.801,1.431 2.393,1.543 1.826,0.572 2.338,1.88 1.543,3.931 l -13.687,36.26 c -0.332,0.791 -0.908,1.191 -1.704,1.191" /></g><g
           transform="translate(1459.5273,544.9355)"
           id="g108"><path
             id="path110"
             style="fill:#404041;fill-opacity:1;fill-rule:nonzero;stroke:none"
             d="m 0,0 1.875,-71.821 c 0.342,-11.397 2.334,-17.725 5.986,-18.975 0.342,-0.122 2.564,-0.405 6.665,-0.854 3.423,-0.459 5.132,-1.031 5.132,-1.719 0,-1.138 -1.308,-1.704 -3.93,-1.704 -4.336,0 -8.838,0.083 -13.511,0.254 -4.678,0.171 -7.237,0.254 -7.691,0.254 0.113,0 -2.055,-0.083 -6.504,-0.254 -4.443,-0.171 -8.432,-0.254 -11.967,-0.254 -2.51,0 -3.765,0.566 -3.765,1.704 0,0.801 1.48,1.313 4.448,1.543 2.051,0.229 4.048,0.454 5.987,0.683 2.163,0.684 3.588,2.505 4.277,5.474 0.566,2.617 0.908,7.866 1.02,15.728 l 1.539,101.235 c 0.117,3.877 0.859,5.815 2.226,5.815 0.908,0 3.023,-1.772 6.328,-5.302 9.346,-10.035 27.017,-28.33 53.013,-54.888 11.621,-12.09 24.16,-25.088 37.617,-38.994 H 89.6 l -1.709,76.777 c -0.113,4.224 -0.342,7.129 -0.684,8.721 -0.918,3.428 -2.627,5.649 -5.132,6.675 -1.709,0.683 -4.731,1.025 -9.062,1.025 -1.831,0 -2.74,0.513 -2.74,1.538 0,1.026 1.485,1.538 4.444,1.538 3.423,0 7.524,-0.088 12.319,-0.254 4.785,-0.171 7.578,-0.258 8.374,-0.258 0.117,0 2.114,0.087 5.991,0.258 3.872,0.166 7.461,0.254 10.772,0.254 2.617,0 3.931,-0.512 3.931,-1.538 0,-1.025 -1.026,-1.538 -3.082,-1.538 -5.698,0 -9.174,-1.88 -10.424,-5.644 -0.577,-2.056 -0.913,-5.191 -1.031,-9.4 L 99.683,-91.826 c -0.113,-3.53 -0.855,-5.298 -2.217,-5.298 -1.255,0 -3.189,1.25 -5.816,3.755 -10.937,10.835 -27.758,27.593 -50.439,50.273 -7.759,7.637 -16.48,16.7 -26.167,27.193 C 10.137,-10.542 5.298,-5.244 0.508,0 Z" /></g><g
           transform="translate(1615.3037,459.7793)"
           id="g112"><path
             id="path114"
             style="fill:#404041;fill-opacity:1;fill-rule:nonzero;stroke:none"
             d="m 0,0 h 42.061 c 14.482,0 23.437,3.135 26.85,9.404 1.485,2.74 2.505,5.474 3.081,8.208 0.342,1.822 0.913,2.74 1.709,2.74 1.138,0 1.709,-1.768 1.709,-5.303 0,-5.703 -1.142,-12.656 -3.418,-20.864 -0.801,-2.964 -2.51,-4.449 -5.132,-4.449 -9.008,0 -23.574,0.152 -43.691,0.43 -20.122,0.288 -36.167,0.425 -48.135,0.425 -1.938,0 -2.905,0.576 -2.905,1.719 0,0.795 0.854,2.514 2.559,5.136 l 72.338,112.51 h -33.52 c -12.085,0 -20.288,-1.206 -24.624,-3.623 -2.969,-1.611 -5.127,-3.799 -6.494,-6.558 -0.572,-1.035 -1.592,-3.847 -3.076,-8.452 -0.347,-1.03 -0.918,-1.548 -1.714,-1.548 -0.913,0 -1.368,0.962 -1.368,2.891 0,2.036 1.143,10.2 3.423,24.487 0.342,2.154 1.026,3.228 2.061,3.228 0.337,0 1.167,-0.152 2.485,-0.464 1.314,-0.303 2.774,-0.508 4.375,-0.61 8.233,-0.308 18.765,-0.464 31.572,-0.464 H 72.49 c 1.948,0 2.92,-0.454 2.92,-1.363 0,-0.688 -0.459,-1.772 -1.367,-3.251 C 61.895,94.619 37.217,56.543 0,0" /></g><g
           transform="translate(1718.585,499.4473)"
           id="g116"><path
             id="path118"
             style="fill:#404041;fill-opacity:1;fill-rule:nonzero;stroke:none"
             d="m 0,0 v 30.098 c 0,20.41 -0.112,32.495 -0.342,36.255 -0.342,5.468 -2.793,8.72 -7.358,9.741 -1.587,0.342 -3.814,0.517 -6.66,0.517 -1.944,0 -2.911,0.513 -2.911,1.538 0,1.026 1.255,1.539 3.765,1.539 3.418,0 8.062,-0.088 13.936,-0.254 5.869,-0.171 9.428,-0.259 10.688,-0.259 2.28,0 6.294,0.088 12.056,0.259 5.757,0.166 10.005,0.254 12.734,0.254 14.365,0 24.966,-3.252 31.807,-9.747 C 73.413,64.58 76.27,57.798 76.27,49.595 76.27,37.51 72.3,27.593 64.38,19.839 56.46,12.085 46.396,8.213 34.199,8.213 c -1.826,0 -3.017,0.054 -3.594,0.166 -1.362,0.229 -2.045,0.742 -2.045,1.538 0,1.26 1.591,1.885 4.785,1.885 5.356,0 10.371,2.505 15.049,7.524 5.239,5.698 7.866,12.598 7.866,20.689 0,11.059 -3.364,19.614 -10.083,25.649 -4.907,4.448 -10.606,6.675 -17.105,6.675 -3.198,0 -5.332,-0.205 -6.416,-0.606 -1.084,-0.4 -1.621,-1.508 -1.621,-3.33 V 0 c 0,-19.38 0.278,-31.572 0.85,-36.587 0.688,-5.586 2.915,-8.667 6.675,-9.243 3.3,-0.454 6.215,-0.674 8.72,-0.674 1.817,0 2.735,-0.459 2.735,-1.377 0,-1.138 -1.084,-1.704 -3.247,-1.704 -4.331,0 -9.61,0.083 -15.816,0.254 -6.216,0.171 -9.78,0.254 -10.688,0.254 -1.031,0 -4.248,-0.083 -9.663,-0.254 -5.415,-0.171 -9.385,-0.254 -11.89,-0.254 -2.275,0 -3.413,0.566 -3.413,1.704 0,0.801 1.25,1.314 3.755,1.543 1.718,0.23 3.423,0.396 5.132,0.508 2.627,0.576 4.277,3.711 4.965,9.409 C -0.288,-31.973 0,-19.834 0,0" /></g><g
           transform="translate(1842.5596,568.0215)"
           id="g120"><path
             id="path122"
             style="fill:#404041;fill-opacity:1;fill-rule:nonzero;stroke:none"
             d="m 0,0 v -51.987 c 0,-1.704 0.513,-2.735 1.538,-3.072 3.193,-1.147 7.525,-1.713 12.988,-1.713 5.474,0 9.522,0.966 12.149,2.905 6.723,4.907 10.088,13.452 10.088,25.649 0,10.835 -3.076,19.092 -9.239,24.8 C 22.627,0.908 16.982,3.076 10.601,3.076 5.132,3.076 1.875,2.739 0.854,2.056 0.283,1.714 0,1.025 0,0 m -20.181,-68.574 v 30.097 c 0,20.411 -0.112,32.496 -0.341,36.255 -0.342,5.469 -2.798,8.721 -7.354,9.742 -1.597,0.341 -3.818,0.517 -6.67,0.517 -1.943,0 -2.905,0.513 -2.905,1.538 0,1.026 1.25,1.538 3.764,1.538 3.531,0 8.145,-0.088 13.848,-0.254 5.698,-0.171 8.892,-0.258 9.58,-0.258 1.934,0 6.011,0.087 12.227,0.258 6.211,0.166 10.171,0.254 11.88,0.254 13.789,0 24.282,-2.451 31.465,-7.348 2.846,-1.944 5.356,-4.849 7.524,-8.721 2.734,-4.565 4.101,-9.463 4.101,-14.707 0,-13.34 -7.524,-26.108 -22.563,-38.306 12.422,-15.732 19.258,-24.282 20.513,-25.654 6.611,-8.32 12.143,-14.756 16.587,-19.321 6.269,-6.494 12.651,-10.371 19.155,-11.626 1.362,-0.113 2.671,-0.23 3.935,-0.342 1.934,-0.23 2.901,-0.742 2.901,-1.543 0,-1.138 -1.084,-1.704 -3.247,-1.704 H 77.974 c -8.208,0 -14.312,1.084 -18.296,3.247 -5.586,2.964 -13.399,11.343 -23.433,25.141 -4.897,6.949 -10.542,14.815 -16.924,23.589 -0.683,0.801 -1.709,1.202 -3.076,1.202 H 1.362 C 0.454,-64.98 0,-65.435 0,-66.338 v -2.373 c 0,-19.253 0.283,-31.367 0.854,-36.348 0.684,-5.771 2.906,-8.891 6.67,-9.345 3.414,-0.454 6.206,-0.674 8.379,-0.674 1.368,0 2.051,-0.459 2.051,-1.377 0,-1.138 -1.142,-1.704 -3.428,-1.704 -3.867,0 -8.969,0.083 -15.302,0.254 -6.319,0.171 -9.6,0.254 -9.829,0.254 -0.796,0 -3.819,-0.083 -9.063,-0.254 -5.239,-0.171 -9.175,-0.254 -11.802,-0.254 -2.275,0 -3.413,0.566 -3.413,1.704 0,0.801 1.255,1.313 3.76,1.543 1.709,0.229 3.423,0.395 5.127,0.508 2.627,0.576 4.277,3.711 4.966,9.409 0.566,4.448 0.849,16.587 0.849,36.421" /></g><g
           transform="translate(2010.3135,592.3037)"
           id="g124"><path
             id="path126"
             style="fill:#404041;fill-opacity:1;fill-rule:nonzero;stroke:none"
             d="m 0,0 c -5.132,0 -7.695,2.676 -7.695,8.037 0,1.939 0.678,3.76 2.046,5.474 1.372,1.704 3.31,2.563 5.815,2.563 5.356,0 8.037,-2.51 8.037,-7.524 C 8.203,6.157 7.441,4.131 5.894,2.48 4.355,0.825 2.388,0 0,0 m -36.084,0 c -5.137,0 -7.695,2.705 -7.695,8.12 0,1.963 0.683,3.775 2.055,5.444 1.363,1.67 3.301,2.51 5.811,2.51 5.351,0 8.032,-2.48 8.032,-7.436 0,-2.422 -0.766,-4.463 -2.309,-6.133 C -31.719,0.835 -33.687,0 -36.084,0 m -38.135,-87.725 v 24.966 c 0,20.41 -0.112,32.495 -0.342,36.255 -0.346,5.469 -2.793,8.721 -7.348,9.741 -1.602,0.342 -3.823,0.518 -6.67,0.518 -1.939,0 -2.91,0.513 -2.91,1.538 0,1.025 1.255,1.538 3.76,1.538 3.305,0 7.954,-0.088 13.94,-0.254 5.981,-0.171 9.663,-0.259 11.025,-0.259 1.255,0 4.536,0.088 9.834,0.259 5.298,0.166 9.034,0.254 11.206,0.254 2.505,0 3.76,-0.513 3.76,-1.543 0,-1.025 -0.918,-1.538 -2.734,-1.538 -1.372,0 -3.028,-0.171 -4.966,-0.513 -3.872,-0.688 -5.982,-3.94 -6.328,-9.76 -0.225,-3.765 -0.337,-15.874 -0.337,-36.299 v -23.975 c 0,-20.781 4.448,-34.819 13.335,-42.129 5.703,-4.678 12.827,-7.021 21.377,-7.021 9.58,0 17.441,3.086 23.594,9.248 4.218,4.223 7.07,10.273 8.549,18.149 0.918,5.254 1.372,13.355 1.372,24.321 v 21.407 c 0,20.425 -0.107,32.534 -0.341,36.299 -0.342,5.473 -2.793,8.73 -7.354,9.76 -1.597,0.342 -3.647,0.513 -6.152,0.513 -1.939,0 -2.91,0.513 -2.91,1.538 0,1.03 1.201,1.543 3.588,1.543 5.015,0 11.573,-0.171 19.668,-0.513 0.342,0 3.023,0.088 8.042,0.259 5.01,0.166 8.829,0.254 11.451,0.254 2.392,0 3.593,-0.513 3.593,-1.538 0,-1.025 -1.025,-1.538 -3.076,-1.538 -1.372,0 -3.027,-0.176 -4.966,-0.518 -3.877,-0.678 -5.981,-3.93 -6.328,-9.741 -0.229,-3.76 -0.337,-15.845 -0.337,-36.255 v -18.296 c 0,-11.626 -0.913,-21.03 -2.734,-28.213 -2.51,-9.921 -7.012,-17.67 -13.516,-23.256 -9.575,-8.213 -21.43,-12.31 -35.556,-12.31 -16.656,0 -29.312,3.931 -37.964,11.797 -10.152,9.116 -15.225,24.224 -15.225,45.312" /></g><g
           transform="translate(2102.1299,513.2998)"
           id="g128"><path
             id="path130"
             style="fill:#404041;fill-opacity:1;fill-rule:nonzero;stroke:none"
             d="m 0,0 v -13.853 c 0,-19.262 0.288,-31.401 0.864,-36.42 0.689,-5.699 2.93,-8.833 6.729,-9.41 3.335,-0.454 6.211,-0.673 8.623,-0.673 1.958,0 2.944,-0.459 2.944,-1.377 0,-1.138 -1.264,-1.705 -3.769,-1.705 -4.102,0 -9.229,0.084 -15.391,0.254 -6.152,0.171 -9.688,0.254 -10.601,0.254 -1.254,0 -4.589,-0.083 -10.004,-0.254 -5.416,-0.17 -9.317,-0.254 -11.709,-0.254 -2.393,0 -3.594,0.567 -3.594,1.705 0,0.8 1.255,1.313 3.764,1.543 1.592,0.229 3.248,0.395 4.961,0.507 2.618,0.577 4.273,3.711 4.956,9.41 0.572,4.448 0.855,16.586 0.855,36.42 v 30.098 c 0,20.41 -0.112,32.495 -0.342,36.255 -0.337,5.469 -2.798,8.721 -7.353,9.741 -1.592,0.342 -3.819,0.518 -6.67,0.518 -1.939,0 -2.906,0.459 -2.906,1.367 0,1.138 1.314,1.709 3.936,1.709 3.306,0 7.886,-0.088 13.765,-0.254 5.869,-0.171 9.487,-0.259 10.859,-0.259 27.695,0 42.749,0.054 45.142,0.176 1.821,0 4.155,0.225 7.016,0.684 2.158,0.678 3.071,1.025 2.73,1.025 0.8,0 1.196,-0.518 1.196,-1.543 0,-0.342 -0.171,-1.196 -0.513,-2.563 -0.342,-1.714 -0.63,-3.418 -0.854,-5.132 -0.23,-3.872 -0.508,-8.491 -0.855,-13.848 -0.229,-1.601 -0.796,-2.397 -1.704,-2.397 -1.03,0 -1.606,0.903 -1.719,2.705 0,2.822 -0.341,4.961 -1.03,6.425 -1.489,3.272 -5.263,4.957 -11.338,5.069 L 1.548,56.436 C 0.518,56.436 0,55.635 0,54.058 V 11.621 c 0,-1.02 0.4,-1.528 1.206,-1.528 h 21.978 c 4.804,0 7.495,0.058 8.071,0.166 3.32,0.346 5.664,1.372 7.036,3.081 0.918,1.142 1.665,1.709 2.231,1.709 0.689,0 1.031,-0.513 1.031,-1.543 0,-0.225 -0.171,-1.48 -0.513,-3.755 C 40.698,7.124 40.41,4.844 40.181,2.91 39.727,-1.768 39.492,-5.928 39.492,-9.575 c 0,-2.163 -0.566,-3.247 -1.714,-3.247 -0.688,0 -1.201,1.084 -1.543,3.247 -0.351,1.479 -0.63,2.964 -0.859,4.443 -1.265,3.535 -4.18,5.586 -8.76,6.162 C 23.872,1.372 15.4,1.538 1.206,1.538 0.4,1.538 0,1.03 0,0" /></g><g
           transform="translate(2178.9121,499.4473)"
           id="g132"><path
             id="path134"
             style="fill:#404041;fill-opacity:1;fill-rule:nonzero;stroke:none"
             d="m 0,0 v 30.098 c 0,20.41 -0.112,32.495 -0.342,36.255 -0.337,5.468 -2.798,8.72 -7.353,9.741 -1.592,0.342 -3.819,0.517 -6.67,0.517 -1.939,0 -2.91,0.513 -2.91,1.538 0,1.026 1.259,1.539 3.764,1.539 3.423,0 8.062,-0.088 13.936,-0.254 5.874,-0.171 9.433,-0.259 10.688,-0.259 27.022,0 41.27,0.054 42.749,0.176 2.969,0.224 5.415,0.566 7.359,1.02 1.933,0.454 2.846,0.689 2.729,0.689 0.684,0 1.026,-0.518 1.026,-1.543 0,-0.113 -0.166,-1.143 -0.508,-3.081 -0.352,-2.281 -0.606,-4.952 -0.772,-8.033 -0.175,-3.081 -0.493,-6.836 -0.947,-11.284 -0.229,-1.26 -0.806,-1.88 -1.719,-1.88 -0.805,0 -1.284,0.62 -1.46,1.88 -0.171,1.255 -0.317,2.446 -0.429,3.594 -0.118,1.133 -0.342,2.163 -0.689,3.071 -1.372,3.311 -5.2,5.362 -11.499,6.157 -3.891,0.455 -12.016,0.689 -24.38,0.689 -0.801,0 -1.201,-0.576 -1.201,-1.719 V 25.654 c 0,-1.259 0.4,-1.884 1.201,-1.884 15.684,0 24.844,0.117 27.481,0.341 1.943,0.113 3.432,0.284 4.463,0.518 1.713,0.449 2.978,1.138 3.779,2.056 1.372,1.474 2.29,2.216 2.749,2.216 0.796,0 1.201,-0.454 1.201,-1.367 0,-0.117 -0.176,-1.255 -0.517,-3.423 -0.342,-2.622 -0.63,-5.639 -0.86,-9.062 C 60.41,8.555 60.181,4.731 60.181,3.594 c 0,-2.163 -0.513,-3.247 -1.543,-3.247 -1.031,0 -1.548,0.6 -1.548,1.792 0,1.196 -0.225,3.169 -0.684,5.903 -0.918,3.872 -4.121,6.099 -9.619,6.665 -3.203,0.342 -11.333,0.518 -24.385,0.518 -0.688,0 -1.03,-0.577 -1.03,-1.709 v -40.02 c 0.234,-6.04 1.577,-9.946 4.038,-11.709 2.456,-1.772 7.984,-2.651 16.568,-2.651 7.778,0 13.154,0.683 16.132,2.051 4.004,1.821 6.578,6.04 7.725,12.651 0.342,1.709 0.967,2.568 1.885,2.568 0.908,0 1.362,-1.025 1.362,-3.076 0,-6.958 -0.742,-13.286 -2.222,-18.984 -0.571,-2.051 -1.367,-3.306 -2.392,-3.765 -1.021,-0.449 -3.311,-0.684 -6.841,-0.684 -9.922,0 -19.775,0.171 -29.585,0.518 -9.805,0.342 -15.728,0.508 -17.783,0.508 -1.026,0 -4.248,-0.083 -9.658,-0.254 -5.42,-0.171 -9.38,-0.254 -11.885,-0.254 -2.28,0 -3.423,0.566 -3.423,1.704 0,0.801 1.255,1.314 3.765,1.543 1.709,0.23 3.418,0.396 5.127,0.508 2.622,0.576 4.277,3.711 4.961,9.409 C -0.283,-31.973 0,-19.834 0,0" /></g><g
           transform="translate(2298.9512,568.0215)"
           id="g136"><path
             id="path138"
             style="fill:#404041;fill-opacity:1;fill-rule:nonzero;stroke:none"
             d="m 0,0 v -51.987 c 0,-1.704 0.518,-2.735 1.538,-3.072 3.193,-1.147 7.525,-1.713 12.998,-1.713 5.474,0 9.517,0.966 12.134,2.905 6.728,4.907 10.093,13.452 10.093,25.649 0,10.835 -3.076,19.092 -9.234,24.8 C 22.627,0.908 16.987,3.076 10.601,3.076 5.127,3.076 1.88,2.739 0.854,2.056 0.288,1.714 0,1.025 0,0 m -20.181,-68.574 v 30.097 c 0,20.411 -0.112,32.496 -0.337,36.255 -0.341,5.469 -2.797,8.721 -7.353,9.742 -1.597,0.341 -3.823,0.517 -6.67,0.517 -1.938,0 -2.915,0.513 -2.915,1.538 0,1.026 1.265,1.538 3.769,1.538 3.536,0 8.155,-0.088 13.848,-0.254 5.698,-0.171 8.897,-0.258 9.575,-0.258 1.939,0 6.011,0.087 12.227,0.258 6.216,0.166 10.181,0.254 11.885,0.254 13.798,0 24.287,-2.451 31.465,-7.348 2.851,-1.944 5.356,-4.849 7.524,-8.721 2.744,-4.565 4.106,-9.463 4.106,-14.707 0,-13.34 -7.524,-26.108 -22.573,-38.306 12.422,-15.732 19.268,-24.282 20.523,-25.654 6.606,-8.32 12.138,-14.756 16.586,-19.321 6.265,-6.494 12.657,-10.371 19.151,-11.626 1.367,-0.113 2.681,-0.23 3.931,-0.342 1.938,-0.23 2.91,-0.742 2.91,-1.543 0,-1.138 -1.084,-1.704 -3.252,-1.704 H 77.974 c -8.208,0 -14.307,1.084 -18.296,3.247 -5.581,2.964 -13.394,11.343 -23.423,25.141 -4.907,6.949 -10.547,14.815 -16.934,23.589 -0.683,0.801 -1.704,1.202 -3.076,1.202 H 1.367 C 0.454,-64.98 0,-65.435 0,-66.338 v -2.373 c 0,-19.253 0.288,-31.367 0.854,-36.348 0.684,-5.771 2.911,-8.891 6.67,-9.345 3.423,-0.454 6.216,-0.674 8.374,-0.674 1.373,0 2.061,-0.459 2.061,-1.377 0,-1.138 -1.147,-1.704 -3.423,-1.704 -3.877,0 -8.979,0.083 -15.307,0.254 -6.329,0.171 -9.605,0.254 -9.834,0.254 -0.796,0 -3.819,-0.083 -9.063,-0.254 -5.244,-0.171 -9.175,-0.254 -11.792,-0.254 -2.285,0 -3.423,0.566 -3.423,1.704 0,0.801 1.25,1.313 3.76,1.543 1.714,0.229 3.418,0.395 5.132,0.508 2.622,0.576 4.277,3.711 4.956,9.409 0.571,4.448 0.854,16.587 0.854,36.421" /></g><g
           transform="translate(2497.3105,450.3701)"
           id="g140"><path
             id="path142"
             style="fill:#404041;fill-opacity:1;fill-rule:nonzero;stroke:none"
             d="m 0,0 c -3.315,0 -5.933,1.143 -7.871,3.423 -1.597,1.938 -2.398,4.272 -2.398,7.012 0,2.509 0.801,4.79 2.398,6.84 2.051,2.393 4.731,3.589 8.037,3.589 2.969,0 5.444,-0.918 7.441,-2.734 C 9.6,16.304 10.601,13.906 10.601,10.947 10.601,7.866 9.629,5.269 7.69,3.164 5.752,1.06 3.184,0 0,0" /></g><g
           transform="translate(2559.5518,529.5449)"
           id="g144"><path
             id="path146"
             style="fill:#404041;fill-opacity:1;fill-rule:nonzero;stroke:none"
             d="m 0,0 v -7.524 h 0.85 c 10.263,10.605 22.172,23.144 35.747,37.617 5.693,6.728 8.545,11.006 8.545,12.832 0,1.933 -0.767,3.071 -2.31,3.413 -1.533,0.347 -2.305,0.918 -2.305,1.714 0,1.025 0.913,1.538 2.73,1.538 1.142,0 3.97,-0.088 8.467,-0.254 4.502,-0.171 7.558,-0.259 9.15,-0.259 1.821,0 5.19,0.088 10.088,0.259 4.902,0.166 8.208,0.254 9.917,0.254 1.938,0 2.91,-0.513 2.91,-1.538 0,-1.026 -0.85,-1.538 -2.568,-1.538 -3.301,0 -6.612,-0.63 -9.917,-1.88 C 65.493,42.466 59.336,38.193 52.832,31.807 35.967,15.391 23.657,3.081 15.903,-5.132 c 2.852,-3.755 10.489,-12.368 22.91,-25.82 11.978,-12.993 19.781,-21.201 23.433,-24.619 5.469,-5.249 9.341,-8.78 11.616,-10.606 4.453,-3.647 8.789,-6.299 13.003,-7.949 4.219,-1.65 7.691,-2.476 10.435,-2.476 1.474,0 2.217,-0.459 2.217,-1.377 0,-1.137 -1.358,-1.704 -4.102,-1.704 H 80.542 c -5.474,0 -9.404,0.113 -11.797,0.342 -4.224,0.342 -7.988,1.475 -11.294,3.413 -2.388,1.372 -5.703,3.941 -9.917,7.7 -3.418,2.959 -11.401,11.68 -23.94,26.163 C 11.973,-28.613 5.02,-20.288 2.734,-17.1 L 0.85,-14.531 H 0 v -15.567 c 0,-19.492 0.176,-31.689 0.508,-36.587 0.342,-5.586 2.392,-8.667 6.162,-9.243 2.964,-0.454 5.752,-0.674 8.374,-0.674 1.484,0 2.227,-0.459 2.227,-1.377 0,-1.137 -1.084,-1.704 -3.252,-1.704 -3.648,0 -8.409,0.083 -14.283,0.254 -5.869,0.171 -9.311,0.254 -10.341,0.254 -1.026,0 -4.249,-0.083 -9.659,-0.254 -5.42,-0.171 -9.38,-0.254 -11.884,-0.254 -2.281,0 -3.423,0.567 -3.423,1.704 0,0.801 1.255,1.314 3.764,1.543 1.709,0.23 3.418,0.396 5.132,0.508 2.617,0.576 4.273,3.711 4.956,9.409 0.572,4.449 0.855,16.587 0.855,36.421 V 0 c 0,20.41 -0.113,32.495 -0.337,36.255 -0.342,5.469 -2.803,8.721 -7.359,9.741 -1.591,0.342 -3.818,0.518 -6.669,0.518 -1.939,0 -2.906,0.512 -2.906,1.538 0,1.025 1.255,1.538 3.76,1.538 3.423,0 8.042,-0.088 13.853,-0.254 5.815,-0.171 9.174,-0.259 10.092,-0.259 1.255,0 4.502,0.088 9.742,0.259 5.249,0.166 8.896,0.254 10.947,0.254 2.397,0 3.589,-0.513 3.589,-1.538 0,-1.026 -0.796,-1.538 -2.393,-1.538 -3.994,0 -6.782,-0.684 -8.379,-2.051 C 1.475,43.091 0.566,40.444 0.342,36.509 0.107,32.578 0,20.41 0,0" /></g><g
           transform="translate(2654.9668,450.3701)"
           id="g148"><path
             id="path150"
             style="fill:#404041;fill-opacity:1;fill-rule:nonzero;stroke:none"
             d="m 0,0 c -3.301,0 -5.928,1.143 -7.861,3.423 -1.607,1.938 -2.398,4.272 -2.398,7.012 0,2.509 0.791,4.79 2.398,6.84 2.046,2.393 4.726,3.589 8.027,3.589 2.969,0 5.449,-0.918 7.441,-2.734 1.997,-1.826 2.998,-4.224 2.998,-7.183 C 10.605,7.866 9.629,5.269 7.69,3.164 5.752,1.06 3.193,0 0,0" /></g><g
           transform="translate(2466.5049,494.8916)"
           id="g152"><path
             id="path154"
             style="fill:#404041;fill-opacity:1;fill-rule:nonzero;stroke:none"
             d="m 0,0 c 0,8.965 -0.488,15.112 -1.465,18.452 -0.972,3.34 -2.49,5.874 -4.551,7.603 -1.167,1.001 -2.724,1.499 -4.672,1.499 -2.896,0 -5.259,-1.416 -7.1,-4.258 -3.281,-4.951 -4.927,-11.743 -4.927,-20.371 l 0,-2.925 z m 20.537,-5.591 h -42.832 c 0.503,-10.356 3.257,-18.54 8.267,-24.551 3.838,-4.619 8.462,-6.928 13.857,-6.928 3.34,0 6.377,0.927 9.102,2.793 2.729,1.865 5.649,5.224 8.769,10.063 l 2.837,-1.836 c -4.228,-8.628 -8.906,-14.741 -14.028,-18.33 -5.117,-3.594 -11.045,-5.381 -17.783,-5.381 -11.578,0 -20.347,4.453 -26.299,13.36 -4.79,7.177 -7.183,16.084 -7.183,26.718 0,13.023 3.521,23.389 10.562,31.099 7.041,7.705 15.293,11.567 24.756,11.567 7.905,0 14.765,-3.247 20.581,-9.731 5.82,-6.484 8.95,-16.099 9.394,-28.843" /></g><g
           transform="translate(706.0947,639.3887)"
           id="g156"><path
             id="path158"
             style="fill:#302f2f;fill-opacity:1;fill-rule:nonzero;stroke:none"
             d="M 0,0 V -380.981" /></g><g
           transform="translate(647.7012,466.6738)"
           id="g160"><path
             id="path162"
             style="fill:#ffffff;fill-opacity:1;fill-rule:nonzero;stroke:none"
             d="m 0,0 c 0,-113.906 -92.344,-206.25 -206.252,-206.25 -113.909,0 -206.25,92.344 -206.25,206.25 0,113.906 92.341,206.25 206.25,206.25 C -92.344,206.25 0,113.906 0,0" /></g></g></g><g
       id="g164"><g
         id="g166"><g
           id="g172"><g
             id="g174"><path
               id="path184"
               style="fill:url(#radialGradient182);stroke:none"
               d="M 237.406,496.894 C 226.659,424.409 255.062,355.185 306.663,310.55 v 0 c 1.254,0.444 5.462,1.966 11.886,4.636 v 0 206.908 l 48.554,-17.695 V 339.222 c 3.008,1.723 6.074,3.525 9.194,5.414 v 0 220.007 l 48.555,-17.696 V 378.869 c 3.075,2.526 6.142,5.129 9.195,7.807 v 0 217.479 l 48.554,-17.696 V 439.606 c 38.336,53.203 61.522,124.554 38.901,217.155 v 0 c -15.615,6.563 -32.3,11.309 -49.829,13.907 v 0 c -10.247,1.519 -20.44,2.256 -30.498,2.256 v 0 C 340.636,672.929 252.59,599.327 237.406,496.894" /></g></g></g></g><g
       id="g186"><g
         clip-path="url(#clipPath192)"
         id="g188"><g
           transform="translate(318.5483,522.0937)"
           id="g194"><path
             id="path196"
             style="fill:#ffffff;fill-opacity:1;fill-rule:nonzero;stroke:none"
             d="m 0,0 v -206.907 c 10.943,4.55 28.33,12.441 48.555,24.035 v 165.177 z" /></g><g
           transform="translate(376.2974,564.6426)"
           id="g198"><path
             id="path200"
             style="fill:#ffffff;fill-opacity:1;fill-rule:nonzero;stroke:none"
             d="m 0,0 v -220.007 c 15.42,9.333 32.081,20.698 48.555,34.234 v 168.078 z" /></g><g
           transform="translate(482.6011,439.6055)"
           id="g202"><path
             id="path204"
             style="fill:#ffffff;fill-opacity:1;fill-rule:nonzero;stroke:none"
             d="m 0,0 v 146.854 l -48.555,17.695 V -52.93 C -31.303,-37.79 -14.56,-20.205 0,0" /></g></g></g><g
       id="g206"><g
         id="g208"><g
           id="g214"><g
             id="g216"><path
               id="path226"
               style="fill:url(#radialGradient224);stroke:none"
               d="m 306.713,310.512 c 28.603,-24.727 64.297,-41.929 104.462,-47.886 v 0 c 112.676,-16.704 217.561,61.099 234.27,173.774 v 0 c 11.748,79.239 -23.281,154.58 -84.277,198.155 v 0 C 577.282,547.333 574.322,369.818 306.713,310.512" /></g></g></g></g><g
       id="g228"><g
         clip-path="url(#clipPath234)"
         id="g230"><g
           transform="translate(306.7124,310.5117)"
           id="g236"><path
             id="path238"
             style="fill:#26a9e0;fill-opacity:1;fill-rule:nonzero;stroke:none"
             d="m 0,0 c 0,0 1.704,0.464 4.858,1.475 3.164,0.966 7.742,2.602 13.572,4.619 5.794,2.129 12.825,4.717 20.725,8.091 7.925,3.291 16.714,7.363 26.211,11.938 4.693,2.402 9.644,4.78 14.595,7.568 2.495,1.353 5.029,2.735 7.602,4.131 2.535,1.475 5.108,2.969 7.715,4.483 2.627,1.474 5.215,3.095 7.823,4.756 2.612,1.655 5.258,3.325 7.929,5.014 2.613,1.782 5.254,3.579 7.915,5.396 1.338,0.908 2.676,1.816 4.024,2.724 1.303,0.972 2.617,1.944 3.935,2.92 2.637,1.948 5.298,3.916 7.974,5.899 2.583,2.094 5.185,4.209 7.803,6.338 l 3.935,3.198 3.799,3.393 c 2.544,2.266 5.103,4.541 7.671,6.822 9.868,9.541 19.702,19.487 28.169,30.561 4.521,5.313 8.398,11.094 12.392,16.758 2.085,2.783 3.765,5.811 5.567,8.75 1.777,2.954 3.555,5.898 5.322,8.828 1.548,3.057 3.091,6.099 4.624,9.121 1.509,3.037 3.237,5.962 4.429,9.102 1.308,3.095 2.607,6.172 3.896,9.219 0.64,1.533 1.28,3.056 1.914,4.57 0.523,1.562 1.036,3.115 1.553,4.668 1.99,6.211 4.314,12.226 5.642,18.388 1.446,6.114 3.33,12.017 4.102,17.979 0.498,2.959 0.996,5.879 1.484,8.76 0.479,2.881 1.026,5.703 1.201,8.535 0.528,5.635 1.045,11.084 1.543,16.308 0.274,5.254 0.196,10.293 0.352,15.098 0.058,2.402 0.117,4.736 0.176,7.012 0.009,2.275 -0.196,4.482 -0.274,6.621 -0.224,4.287 -0.42,8.296 -0.615,12.002 -0.098,1.855 -0.186,3.642 -0.273,5.342 -0.215,1.689 -0.411,3.3 -0.606,4.834 -0.781,6.113 -1.269,10.947 -1.66,14.238 -0.371,3.296 -0.566,5.054 -0.566,5.054 0,0 0.332,-1.734 0.966,-4.986 0.625,-3.252 1.612,-8.017 2.715,-14.121 0.274,-1.523 0.576,-3.13 0.889,-4.814 0.185,-1.699 0.39,-3.482 0.596,-5.337 0.419,-3.716 0.859,-7.739 1.337,-12.036 0.215,-2.154 0.547,-4.37 0.674,-6.665 0.078,-2.3 0.166,-4.663 0.254,-7.085 0.127,-4.864 0.371,-9.981 0.332,-15.313 -0.273,-5.342 -0.556,-10.898 -0.849,-16.66 -0.039,-2.891 -0.528,-5.791 -0.928,-8.74 -0.401,-2.954 -0.811,-5.952 -1.231,-8.994 -0.605,-6.123 -2.334,-12.217 -3.623,-18.545 -1.142,-6.377 -3.476,-12.578 -5.39,-19.014 -0.498,-1.601 -1.006,-3.213 -1.504,-4.824 -0.625,-1.577 -1.25,-3.154 -1.885,-4.741 -1.269,-3.169 -2.546,-6.363 -3.831,-9.566 -1.176,-3.261 -2.89,-6.308 -4.389,-9.468 -1.563,-3.129 -3.135,-6.274 -4.712,-9.428 -1.802,-3.037 -3.608,-6.084 -5.425,-9.141 -1.836,-3.037 -3.555,-6.172 -5.679,-9.048 -4.077,-5.864 -8.032,-11.85 -12.661,-17.329 -8.789,-11.338 -18.94,-21.494 -29.111,-31.201 -2.647,-2.319 -5.283,-4.629 -7.905,-6.924 l -3.955,-3.398 -4.082,-3.194 c -2.71,-2.124 -5.411,-4.233 -8.086,-6.328 -2.769,-1.963 -5.513,-3.921 -8.238,-5.859 -1.362,-0.967 -2.719,-1.934 -4.067,-2.891 -1.387,-0.908 -2.769,-1.806 -4.146,-2.705 -2.758,-1.777 -5.488,-3.535 -8.188,-5.273 -2.769,-1.636 -5.508,-3.252 -8.213,-4.844 -2.695,-1.602 -5.371,-3.169 -8.081,-4.585 C 87.368,31.484 76.895,26.577 67.173,22.236 57.412,17.969 48.32,14.414 40.151,11.592 32.021,8.672 24.81,6.494 18.877,4.707 12.925,2.988 8.196,1.831 4.966,1.084 1.736,0.327 0,0 0,0" /></g><g
           transform="translate(318.5459,315.1895)"
           id="g240"><path
             id="path242"
             style="fill:#1372af;fill-opacity:1;fill-rule:nonzero;stroke:none"
             d="m 0,0 2.5,1.104 v 203.3 l 46.055,-16.787 v 1.592 L 0,206.904 Z" /></g><g
           transform="translate(376.2949,344.6621)"
           id="g244"><path
             id="path246"
             style="fill:#1372af;fill-opacity:1;fill-rule:nonzero;stroke:none"
             d="M 0,0 2.5,1.533 V 217.48 l 46.055,-16.787 v 1.592 L 0,219.98 Z" /></g><g
           transform="translate(482.6011,584.8672)"
           id="g248"><path
             id="path250"
             style="fill:#1372af;fill-opacity:1;fill-rule:nonzero;stroke:none"
             d="m 0,0 v 1.592 l -48.557,17.695 v -217.441 l 2.5,2.246 V 16.787 Z" /></g><g
           id="g252"><g
             id="g254" /><g
             id="g284"><g
               style="opacity:0.39999402"
               id="g282"
               clip-path="url(#clipPath258)"><g
                 id="g280"><g
                   id="g278"><g
                     id="g276"><g
                       id="g274"><path
                         id="path272"
                         style="fill:url(#radialGradient270);stroke:none"
                         d="m 577.018,234.286 c 0,-6.401 -60.706,-11.587 -135.594,-11.587 -74.885,0 -135.591,5.186 -135.591,11.587 0,6.401 60.706,11.587 135.591,11.587 74.888,0 135.594,-5.186 135.594,-11.587" /></g></g></g></g></g></g></g></g></g></g></svg>